%TF.GenerationSoftware,KiCad,Pcbnew,10.0.0*%
%TF.CreationDate,2026-04-01T14:44:12+11:00*%
%TF.ProjectId,hackpadbludprint,6861636b-7061-4646-926c-75647072696e,V1*%
%TF.SameCoordinates,Original*%
%TF.FileFunction,Legend,Bot*%
%TF.FilePolarity,Positive*%
%FSLAX46Y46*%
G04 Gerber Fmt 4.6, Leading zero omitted, Abs format (unit mm)*
G04 Created by KiCad (PCBNEW 10.0.0) date 2026-04-01 14:44:12*
%MOMM*%
%LPD*%
G01*
G04 APERTURE LIST*
%ADD10C,0.150000*%
%ADD11C,0.120000*%
G04 APERTURE END LIST*
D10*
X156238094Y-123954819D02*
X156238094Y-122954819D01*
X156238094Y-122954819D02*
X155999999Y-122954819D01*
X155999999Y-122954819D02*
X155857142Y-123002438D01*
X155857142Y-123002438D02*
X155761904Y-123097676D01*
X155761904Y-123097676D02*
X155714285Y-123192914D01*
X155714285Y-123192914D02*
X155666666Y-123383390D01*
X155666666Y-123383390D02*
X155666666Y-123526247D01*
X155666666Y-123526247D02*
X155714285Y-123716723D01*
X155714285Y-123716723D02*
X155761904Y-123811961D01*
X155761904Y-123811961D02*
X155857142Y-123907200D01*
X155857142Y-123907200D02*
X155999999Y-123954819D01*
X155999999Y-123954819D02*
X156238094Y-123954819D01*
X155333332Y-122954819D02*
X154714285Y-122954819D01*
X154714285Y-122954819D02*
X155047618Y-123335771D01*
X155047618Y-123335771D02*
X154904761Y-123335771D01*
X154904761Y-123335771D02*
X154809523Y-123383390D01*
X154809523Y-123383390D02*
X154761904Y-123431009D01*
X154761904Y-123431009D02*
X154714285Y-123526247D01*
X154714285Y-123526247D02*
X154714285Y-123764342D01*
X154714285Y-123764342D02*
X154761904Y-123859580D01*
X154761904Y-123859580D02*
X154809523Y-123907200D01*
X154809523Y-123907200D02*
X154904761Y-123954819D01*
X154904761Y-123954819D02*
X155190475Y-123954819D01*
X155190475Y-123954819D02*
X155285713Y-123907200D01*
X155285713Y-123907200D02*
X155333332Y-123859580D01*
X156238094Y-104954819D02*
X156238094Y-103954819D01*
X156238094Y-103954819D02*
X155999999Y-103954819D01*
X155999999Y-103954819D02*
X155857142Y-104002438D01*
X155857142Y-104002438D02*
X155761904Y-104097676D01*
X155761904Y-104097676D02*
X155714285Y-104192914D01*
X155714285Y-104192914D02*
X155666666Y-104383390D01*
X155666666Y-104383390D02*
X155666666Y-104526247D01*
X155666666Y-104526247D02*
X155714285Y-104716723D01*
X155714285Y-104716723D02*
X155761904Y-104811961D01*
X155761904Y-104811961D02*
X155857142Y-104907200D01*
X155857142Y-104907200D02*
X155999999Y-104954819D01*
X155999999Y-104954819D02*
X156238094Y-104954819D01*
X155285713Y-104050057D02*
X155238094Y-104002438D01*
X155238094Y-104002438D02*
X155142856Y-103954819D01*
X155142856Y-103954819D02*
X154904761Y-103954819D01*
X154904761Y-103954819D02*
X154809523Y-104002438D01*
X154809523Y-104002438D02*
X154761904Y-104050057D01*
X154761904Y-104050057D02*
X154714285Y-104145295D01*
X154714285Y-104145295D02*
X154714285Y-104240533D01*
X154714285Y-104240533D02*
X154761904Y-104383390D01*
X154761904Y-104383390D02*
X155333332Y-104954819D01*
X155333332Y-104954819D02*
X154714285Y-104954819D01*
X156238094Y-142954819D02*
X156238094Y-141954819D01*
X156238094Y-141954819D02*
X155999999Y-141954819D01*
X155999999Y-141954819D02*
X155857142Y-142002438D01*
X155857142Y-142002438D02*
X155761904Y-142097676D01*
X155761904Y-142097676D02*
X155714285Y-142192914D01*
X155714285Y-142192914D02*
X155666666Y-142383390D01*
X155666666Y-142383390D02*
X155666666Y-142526247D01*
X155666666Y-142526247D02*
X155714285Y-142716723D01*
X155714285Y-142716723D02*
X155761904Y-142811961D01*
X155761904Y-142811961D02*
X155857142Y-142907200D01*
X155857142Y-142907200D02*
X155999999Y-142954819D01*
X155999999Y-142954819D02*
X156238094Y-142954819D01*
X154809523Y-142288152D02*
X154809523Y-142954819D01*
X155047618Y-141907200D02*
X155285713Y-142621485D01*
X155285713Y-142621485D02*
X154666666Y-142621485D01*
X156238094Y-85954819D02*
X156238094Y-84954819D01*
X156238094Y-84954819D02*
X155999999Y-84954819D01*
X155999999Y-84954819D02*
X155857142Y-85002438D01*
X155857142Y-85002438D02*
X155761904Y-85097676D01*
X155761904Y-85097676D02*
X155714285Y-85192914D01*
X155714285Y-85192914D02*
X155666666Y-85383390D01*
X155666666Y-85383390D02*
X155666666Y-85526247D01*
X155666666Y-85526247D02*
X155714285Y-85716723D01*
X155714285Y-85716723D02*
X155761904Y-85811961D01*
X155761904Y-85811961D02*
X155857142Y-85907200D01*
X155857142Y-85907200D02*
X155999999Y-85954819D01*
X155999999Y-85954819D02*
X156238094Y-85954819D01*
X154714285Y-85954819D02*
X155285713Y-85954819D01*
X154999999Y-85954819D02*
X154999999Y-84954819D01*
X154999999Y-84954819D02*
X155095237Y-85097676D01*
X155095237Y-85097676D02*
X155190475Y-85192914D01*
X155190475Y-85192914D02*
X155285713Y-85240533D01*
%TO.C,D3*%
D11*
X146850000Y-121625000D02*
X146850000Y-125375000D01*
X146850000Y-125375000D02*
X153425000Y-125375000D01*
X154150000Y-121625000D02*
X146850000Y-121625000D01*
X154150000Y-124650000D02*
X153425000Y-125375000D01*
X154150000Y-124650000D02*
X154150000Y-121625000D01*
X153375000Y-125150000D02*
X153075000Y-125150000D01*
X153225000Y-124950000D01*
X153375000Y-125150000D01*
G36*
X153375000Y-125150000D02*
G01*
X153075000Y-125150000D01*
X153225000Y-124950000D01*
X153375000Y-125150000D01*
G37*
%TO.C,D2*%
X146850000Y-102560000D02*
X146850000Y-106310000D01*
X146850000Y-106310000D02*
X153425000Y-106310000D01*
X154150000Y-102560000D02*
X146850000Y-102560000D01*
X154150000Y-105585000D02*
X153425000Y-106310000D01*
X154150000Y-105585000D02*
X154150000Y-102560000D01*
X153375000Y-106085000D02*
X153075000Y-106085000D01*
X153225000Y-105885000D01*
X153375000Y-106085000D01*
G36*
X153375000Y-106085000D02*
G01*
X153075000Y-106085000D01*
X153225000Y-105885000D01*
X153375000Y-106085000D01*
G37*
%TO.C,D4*%
X146850000Y-140625000D02*
X146850000Y-144375000D01*
X146850000Y-144375000D02*
X153425000Y-144375000D01*
X154150000Y-140625000D02*
X146850000Y-140625000D01*
X154150000Y-143650000D02*
X153425000Y-144375000D01*
X154150000Y-143650000D02*
X154150000Y-140625000D01*
X153375000Y-144150000D02*
X153075000Y-144150000D01*
X153225000Y-143950000D01*
X153375000Y-144150000D01*
G36*
X153375000Y-144150000D02*
G01*
X153075000Y-144150000D01*
X153225000Y-143950000D01*
X153375000Y-144150000D01*
G37*
%TO.C,D1*%
X146850000Y-83625000D02*
X146850000Y-87375000D01*
X146850000Y-87375000D02*
X153425000Y-87375000D01*
X154150000Y-83625000D02*
X146850000Y-83625000D01*
X154150000Y-86650000D02*
X153425000Y-87375000D01*
X154150000Y-86650000D02*
X154150000Y-83625000D01*
X153375000Y-87150000D02*
X153075000Y-87150000D01*
X153225000Y-86950000D01*
X153375000Y-87150000D01*
G36*
X153375000Y-87150000D02*
G01*
X153075000Y-87150000D01*
X153225000Y-86950000D01*
X153375000Y-87150000D01*
G37*
%TD*%
M02*
