M48
; DRILL file KiCad 10.0.0 date 2026-04-01T14:45:46
; FORMAT={-:-/ absolute / metric / decimal}
; #@! TF.CreationDate,2026-04-01T14:45:46+11:00
; #@! TF.GenerationSoftware,Kicad,Pcbnew,10.0.0
; #@! TF.FileFunction,Plated,1,2,PTH
FMAT,2
METRIC
; #@! TA.AperFunction,Plated,PTH,ComponentDrill
T1C1.000
; #@! TA.AperFunction,Plated,PTH,ComponentDrill
T2C1.500
%
G90
G05
T1
X142.75Y-53.0
X142.75Y-55.54
X142.75Y-58.08
X142.75Y-60.62
X142.75Y-63.16
X142.75Y-65.7
X142.75Y-68.24
X158.0Y-53.0
X158.0Y-55.54
X158.0Y-58.08
X158.0Y-60.62
X158.0Y-63.16
X158.0Y-65.7
X158.0Y-68.24
X164.0Y-57.5
X165.5Y-96.5
X165.5Y-111.0
X166.54Y-57.5
X168.0Y-111.0
X169.08Y-57.5
X170.5Y-96.5
X170.5Y-111.0
X171.62Y-57.5
T2
X146.65Y-78.46
X146.65Y-97.46
X146.65Y-116.46
X146.65Y-135.505
X153.0Y-75.92
X153.0Y-94.92
X153.0Y-113.92
X153.0Y-132.965
T2
G00X162.4Y-104.15
M15
G01X162.4Y-102.85
M16
G05
G00X173.6Y-104.15
M15
G01X173.6Y-102.85
M16
G05
M30
