%TF.GenerationSoftware,KiCad,Pcbnew,10.0.0*%
%TF.CreationDate,2026-05-30T20:07:48+10:00*%
%TF.ProjectId,hackpadbludprint,6861636b-7061-4646-926c-75647072696e,V1*%
%TF.SameCoordinates,Original*%
%TF.FileFunction,Copper,L2,Bot*%
%TF.FilePolarity,Positive*%
%FSLAX46Y46*%
G04 Gerber Fmt 4.6, Leading zero omitted, Abs format (unit mm)*
G04 Created by KiCad (PCBNEW 10.0.0) date 2026-05-30 20:07:48*
%MOMM*%
%LPD*%
G01*
G04 APERTURE LIST*
G04 Aperture macros list*
%AMRoundRect*
0 Rectangle with rounded corners*
0 $1 Rounding radius*
0 $2 $3 $4 $5 $6 $7 $8 $9 X,Y pos of 4 corners*
0 Add a 4 corners polygon primitive as box body*
4,1,4,$2,$3,$4,$5,$6,$7,$8,$9,$2,$3,0*
0 Add four circle primitives for the rounded corners*
1,1,$1+$1,$2,$3*
1,1,$1+$1,$4,$5*
1,1,$1+$1,$6,$7*
1,1,$1+$1,$8,$9*
0 Add four rect primitives between the rounded corners*
20,1,$1+$1,$2,$3,$4,$5,0*
20,1,$1+$1,$4,$5,$6,$7,0*
20,1,$1+$1,$6,$7,$8,$9,0*
20,1,$1+$1,$8,$9,$2,$3,0*%
G04 Aperture macros list end*
%TA.AperFunction,ComponentPad*%
%ADD10R,3.500000X1.700000*%
%TD*%
%TA.AperFunction,ComponentPad*%
%ADD11O,3.600000X1.700000*%
%TD*%
%TA.AperFunction,ComponentPad*%
%ADD12O,3.700000X1.700000*%
%TD*%
%TA.AperFunction,ComponentPad*%
%ADD13C,2.200000*%
%TD*%
%TA.AperFunction,ComponentPad*%
%ADD14R,2.000000X2.000000*%
%TD*%
%TA.AperFunction,ComponentPad*%
%ADD15C,2.000000*%
%TD*%
%TA.AperFunction,ComponentPad*%
%ADD16R,2.000000X3.200000*%
%TD*%
%TA.AperFunction,ComponentPad*%
%ADD17RoundRect,0.170000X-0.680000X-0.680000X0.680000X-0.680000X0.680000X0.680000X-0.680000X0.680000X0*%
%TD*%
%TA.AperFunction,ComponentPad*%
%ADD18C,1.700000*%
%TD*%
%TA.AperFunction,SMDPad,CuDef*%
%ADD19RoundRect,0.205000X0.470000X0.205000X-0.470000X0.205000X-0.470000X-0.205000X0.470000X-0.205000X0*%
%TD*%
%TA.AperFunction,Conductor*%
%ADD20C,0.200000*%
%TD*%
G04 APERTURE END LIST*
D10*
%TO.P,U1,1,PA02_A0_D0_1*%
%TO.N,Net-(U1-PA02_A0_D0)*%
X141750000Y-53000000D03*
D11*
%TO.P,U1,2,PA4_A1_D1_2*%
%TO.N,Net-(U1-PA4_A1_D1)*%
X141750000Y-55540000D03*
%TO.P,U1,3,PA10_A2_D2_3*%
%TO.N,Net-(U1-PA10_A2_D2)*%
X141750000Y-58080000D03*
%TO.P,U1,4,PA11_A3_D3_4*%
%TO.N,unconnected-(U1-PA11_A3_D3-Pad4)*%
X141750000Y-60620000D03*
%TO.P,U1,5,PA8_A4_D4_SDA_5*%
%TO.N,Net-(U1-PA8_A4_D4_SDA)*%
X141750000Y-63160000D03*
%TO.P,U1,6,PA9_A5_D5_SCL_6*%
%TO.N,Net-(U1-PA9_A5_D5_SCL)*%
X141750000Y-65700000D03*
%TO.P,U1,7,PB08_A6_D6_TX_7*%
%TO.N,Net-(D1-DIN)*%
X141750000Y-68240000D03*
%TO.P,U1,8,PB09_A7_D7_RX_8*%
%TO.N,Net-(U1-PB09_A7_D7_RX)*%
X159000000Y-68240000D03*
%TO.P,U1,9,PA7_A8_D8_SCK_9*%
%TO.N,Net-(U1-PA7_A8_D8_SCK)*%
X159000000Y-65700000D03*
%TO.P,U1,10,PA5_A9_D9_MISO_10*%
%TO.N,Net-(U1-PA5_A9_D9_MISO)*%
X159000000Y-63160000D03*
D12*
%TO.P,U1,11,PA6_A10_D10_MOSI_11*%
%TO.N,Net-(U1-PA6_A10_D10_MOSI)*%
X159000000Y-60620000D03*
%TO.P,U1,12,3V3_12*%
%TO.N,unconnected-(U1-3V3-Pad12)*%
X159000000Y-58080000D03*
%TO.P,U1,13,GND_13*%
%TO.N,GND*%
X159000000Y-55540000D03*
%TO.P,U1,14,5V_14*%
%TO.N,+5V*%
X159000000Y-53000000D03*
%TD*%
D13*
%TO.P,SW3,1,1_1*%
%TO.N,Net-(U1-PA7_A8_D8_SCK)*%
X153000000Y-113920000D03*
%TO.P,SW3,2,2_2*%
%TO.N,GND*%
X146650000Y-116460000D03*
%TD*%
%TO.P,SW2,1,1_1*%
%TO.N,Net-(U1-PA5_A9_D9_MISO)*%
X153000000Y-94920000D03*
%TO.P,SW2,2,2_2*%
%TO.N,GND*%
X146650000Y-97460000D03*
%TD*%
D14*
%TO.P,SW5,A,A_A*%
%TO.N,Net-(U1-PA4_A1_D1)*%
X165500000Y-111000000D03*
D15*
%TO.P,SW5,B,B_B*%
%TO.N,Net-(U1-PA02_A0_D0)*%
X170500000Y-111000000D03*
%TO.P,SW5,C,C_C*%
%TO.N,GND*%
X168000000Y-111000000D03*
D16*
%TO.P,SW5,MP*%
%TO.N,N/C*%
X162400000Y-103500000D03*
X173600000Y-103500000D03*
D15*
%TO.P,SW5,S1,S1_S1*%
%TO.N,Net-(U1-PA10_A2_D2)*%
X170500000Y-96500000D03*
%TO.P,SW5,S2,S2_S2*%
%TO.N,GND*%
X165500000Y-96500000D03*
%TD*%
D17*
%TO.P,OLED U2,1,GND_1*%
%TO.N,GND*%
X164000000Y-57500000D03*
D18*
%TO.P,OLED U2,2,VCC_2*%
%TO.N,+5V*%
X166540000Y-57500000D03*
%TO.P,OLED U2,3,SCL_3*%
%TO.N,Net-(U1-PA9_A5_D5_SCL)*%
X169080000Y-57500000D03*
%TO.P,OLED U2,4,SDA_4*%
%TO.N,Net-(U1-PA8_A4_D4_SDA)*%
X171620000Y-57500000D03*
%TD*%
D13*
%TO.P,SW1,1,1_1*%
%TO.N,Net-(U1-PA6_A10_D10_MOSI)*%
X153000000Y-75920000D03*
%TO.P,SW1,2,2_2*%
%TO.N,GND*%
X146650000Y-78460000D03*
%TD*%
%TO.P,SW4,1,1_1*%
%TO.N,Net-(U1-PB09_A7_D7_RX)*%
X153000000Y-132965000D03*
%TO.P,SW4,2,2_2*%
%TO.N,GND*%
X146650000Y-135505000D03*
%TD*%
D19*
%TO.P,D3,1,VSS_1*%
%TO.N,GND*%
X153225000Y-124250000D03*
%TO.P,D3,2,DIN_2*%
%TO.N,Net-(D2-DOUT)*%
X153225000Y-122750000D03*
%TO.P,D3,3,VDD_3*%
%TO.N,+5V*%
X147775000Y-122750000D03*
%TO.P,D3,4,DOUT_4*%
%TO.N,Net-(D3-DOUT)*%
X147775000Y-124250000D03*
%TD*%
%TO.P,D2,1,VSS_1*%
%TO.N,GND*%
X153225000Y-105185000D03*
%TO.P,D2,2,DIN_2*%
%TO.N,Net-(D1-DOUT)*%
X153225000Y-103685000D03*
%TO.P,D2,3,VDD_3*%
%TO.N,+5V*%
X147775000Y-103685000D03*
%TO.P,D2,4,DOUT_4*%
%TO.N,Net-(D2-DOUT)*%
X147775000Y-105185000D03*
%TD*%
%TO.P,D4,1,VSS_1*%
%TO.N,GND*%
X153225000Y-143250000D03*
%TO.P,D4,2,DIN_2*%
%TO.N,Net-(D3-DOUT)*%
X153225000Y-141750000D03*
%TO.P,D4,3,VDD_3*%
%TO.N,+5V*%
X147775000Y-141750000D03*
%TO.P,D4,4,DOUT_4*%
%TO.N,unconnected-(D4-DOUT-Pad4)*%
X147775000Y-143250000D03*
%TD*%
%TO.P,D1,1,VSS_1*%
%TO.N,GND*%
X153225000Y-86250000D03*
%TO.P,D1,2,DIN_2*%
%TO.N,Net-(D1-DIN)*%
X153225000Y-84750000D03*
%TO.P,D1,3,VDD_3*%
%TO.N,+5V*%
X147775000Y-84750000D03*
%TO.P,D1,4,DOUT_4*%
%TO.N,Net-(D1-DOUT)*%
X147775000Y-86250000D03*
%TD*%
%TO.N,Net-(U1-PA02_A0_D0)*%
D20*
X149220000Y-59270000D02*
X142750000Y-52800000D01*
X161150000Y-90311522D02*
X161150000Y-59943654D01*
X170500000Y-111000000D02*
X170500000Y-99661522D01*
X161150000Y-59943654D02*
X160476346Y-59270000D01*
X170500000Y-99661522D02*
X161150000Y-90311522D01*
X160476346Y-59270000D02*
X149220000Y-59270000D01*
%TO.N,Net-(D1-DIN)*%
X153225000Y-84750000D02*
X153225000Y-78515000D01*
X153225000Y-78515000D02*
X142750000Y-68040000D01*
%TO.N,Net-(U1-PB09_A7_D7_RX)*%
X158000000Y-127925000D02*
X158000000Y-68040000D01*
X152960000Y-132965000D02*
X158000000Y-127925000D01*
%TO.N,Net-(U1-PA7_A8_D8_SCK)*%
X156900000Y-66600000D02*
X158000000Y-65500000D01*
X156900000Y-110020000D02*
X156900000Y-66600000D01*
X153000000Y-113920000D02*
X156900000Y-110020000D01*
%TO.N,Net-(U1-PA5_A9_D9_MISO)*%
X154200000Y-93720000D02*
X154200000Y-76699899D01*
X154200000Y-76699899D02*
X156500000Y-74399899D01*
X153000000Y-94920000D02*
X154200000Y-93720000D01*
X156500000Y-64460000D02*
X158000000Y-62960000D01*
X156500000Y-74399899D02*
X156500000Y-64460000D01*
%TO.N,Net-(U1-PA6_A10_D10_MOSI)*%
X153000000Y-75920000D02*
X153000000Y-65420000D01*
X153000000Y-65420000D02*
X158000000Y-60420000D01*
%TO.N,GND*%
X146650000Y-143650000D02*
X146650000Y-135505000D01*
X152600101Y-115500000D02*
X154000000Y-115500000D01*
X154200000Y-123275000D02*
X153225000Y-124250000D01*
X153225000Y-86250000D02*
X153225000Y-92715101D01*
X153225000Y-124250000D02*
X153225000Y-130760101D01*
X158400000Y-114556922D02*
X160656922Y-112300000D01*
X154200000Y-115700000D02*
X154200000Y-123275000D01*
X166700000Y-112300000D02*
X168000000Y-111000000D01*
X151600000Y-132385101D02*
X151600000Y-133544899D01*
X151600000Y-95499899D02*
X152600101Y-96500000D01*
X154000000Y-134500000D02*
X154200000Y-134700000D01*
X151600000Y-133544899D02*
X152555101Y-134500000D01*
X153500000Y-96500000D02*
X154200000Y-97200000D01*
X154200000Y-104210000D02*
X153225000Y-105185000D01*
X153225000Y-145275000D02*
X152500000Y-146000000D01*
X152600101Y-96500000D02*
X153500000Y-96500000D01*
X151600000Y-113340101D02*
X151600000Y-114499899D01*
X154200000Y-134700000D02*
X154200000Y-142275000D01*
X154000000Y-115500000D02*
X154200000Y-115700000D01*
X158400000Y-138075000D02*
X158400000Y-114556922D01*
X149000000Y-146000000D02*
X146650000Y-143650000D01*
X165500000Y-96500000D02*
X168000000Y-99000000D01*
X153225000Y-143250000D02*
X153225000Y-145275000D01*
X151600000Y-114499899D02*
X152600101Y-115500000D01*
X152500000Y-146000000D02*
X149000000Y-146000000D01*
X154200000Y-142275000D02*
X153225000Y-143250000D01*
X154200000Y-97200000D02*
X154200000Y-104210000D01*
X153225000Y-130760101D02*
X151600000Y-132385101D01*
X153225000Y-111715101D02*
X151600000Y-113340101D01*
X160656922Y-112300000D02*
X166700000Y-112300000D01*
X153225000Y-92715101D02*
X151600000Y-94340101D01*
X153225000Y-105185000D02*
X153225000Y-111715101D01*
X168000000Y-99000000D02*
X168000000Y-111000000D01*
X151600000Y-94340101D02*
X151600000Y-95499899D01*
X153225000Y-143250000D02*
X158400000Y-138075000D01*
X152555101Y-134500000D02*
X154000000Y-134500000D01*
%TO.N,+5V*%
X148050000Y-125919858D02*
X146800000Y-124669858D01*
X147775000Y-103685000D02*
X148050000Y-103410000D01*
X146800000Y-123725000D02*
X147775000Y-122750000D01*
X155812545Y-50612545D02*
X139600000Y-50645514D01*
X139600000Y-50645514D02*
X139600000Y-61758264D01*
X148050000Y-106854858D02*
X146800000Y-105604858D01*
X146800000Y-86669858D02*
X146800000Y-85725000D01*
X158000000Y-52800000D02*
X155812545Y-50612545D01*
X147775000Y-141750000D02*
X148050000Y-141475000D01*
X148050000Y-103410000D02*
X148050000Y-87919858D01*
X139631568Y-77281568D02*
X147100000Y-84750000D01*
X146800000Y-104660000D02*
X147775000Y-103685000D01*
X146800000Y-105604858D02*
X146800000Y-104660000D01*
X139600000Y-61758264D02*
X139631568Y-77281568D01*
X148050000Y-122475000D02*
X148050000Y-106854858D01*
X148050000Y-87919858D02*
X146800000Y-86669858D01*
X147775000Y-122750000D02*
X148050000Y-122475000D01*
X148050000Y-141475000D02*
X148050000Y-125919858D01*
X146800000Y-85725000D02*
X147775000Y-84750000D01*
X146800000Y-124669858D02*
X146800000Y-123725000D01*
X147100000Y-84750000D02*
X147775000Y-84750000D01*
%TO.N,Net-(D2-DOUT)*%
X147775000Y-105185000D02*
X147775000Y-106014172D01*
X153225000Y-118441598D02*
X153225000Y-122750000D01*
X147775000Y-106014172D02*
X148450000Y-106689173D01*
X148450000Y-113666598D02*
X153225000Y-118441598D01*
X148450000Y-106689173D02*
X148450000Y-113666598D01*
%TO.N,Net-(D3-DOUT)*%
X151200000Y-128504172D02*
X151200000Y-135200000D01*
X147775000Y-125079172D02*
X151200000Y-128504172D01*
X153225000Y-137225000D02*
X153225000Y-141750000D01*
X151200000Y-135200000D02*
X153225000Y-137225000D01*
X147775000Y-124250000D02*
X147775000Y-125079172D01*
%TO.N,Net-(D1-DOUT)*%
X147775000Y-86250000D02*
X147775000Y-87079172D01*
X151200000Y-97416598D02*
X153225000Y-99441598D01*
X153225000Y-99441598D02*
X153225000Y-103685000D01*
X151200000Y-90504172D02*
X151200000Y-97416598D01*
X147775000Y-87079172D02*
X151200000Y-90504172D01*
%TD*%
M02*
