%TF.GenerationSoftware,KiCad,Pcbnew,10.0.0*%
%TF.CreationDate,2026-04-02T11:33:44+11:00*%
%TF.ProjectId,hackpadbludprint,6861636b-7061-4646-926c-75647072696e,V1*%
%TF.SameCoordinates,Original*%
%TF.FileFunction,Legend,Top*%
%TF.FilePolarity,Positive*%
%FSLAX46Y46*%
G04 Gerber Fmt 4.6, Leading zero omitted, Abs format (unit mm)*
G04 Created by KiCad (PCBNEW 10.0.0) date 2026-04-02 11:33:44*
%MOMM*%
%LPD*%
G01*
G04 APERTURE LIST*
%ADD10C,0.100000*%
%ADD11C,0.150000*%
%ADD12C,0.101600*%
%ADD13C,0.300000*%
%ADD14C,0.127000*%
%ADD15C,0.120000*%
%ADD16C,0.254000*%
%ADD17C,0.025400*%
%ADD18C,0.000000*%
G04 APERTURE END LIST*
D10*
X168875000Y-123975000D02*
X168859468Y-123946960D01*
X168844048Y-123918959D01*
X168828739Y-123890996D01*
X168813540Y-123863067D01*
X168798449Y-123835171D01*
X168783465Y-123807306D01*
X168768586Y-123779470D01*
X168753811Y-123751659D01*
X168739138Y-123723871D01*
X168724565Y-123696103D01*
X168710090Y-123668352D01*
X168695711Y-123640613D01*
X168681426Y-123612884D01*
X168667233Y-123585160D01*
X168653129Y-123557435D01*
X168639111Y-123529706D01*
X168625176Y-123501966D01*
X168611321Y-123474208D01*
X168597543Y-123446427D01*
X168583837Y-123418614D01*
X168570199Y-123390760D01*
X168556624Y-123362856D01*
X168543108Y-123334891D01*
X168529643Y-123306852D01*
X168516224Y-123278725D01*
X168502842Y-123250494D01*
X168489489Y-123222140D01*
X168476155Y-123193642D01*
X168462828Y-123164973D01*
X168449495Y-123136104D01*
X168436138Y-123106998D01*
X168422739Y-123077611D01*
X168409273Y-123047888D01*
X168395710Y-123017763D01*
X168382012Y-122987149D01*
X168368129Y-122955931D01*
X168353994Y-122923955D01*
X168339512Y-122891006D01*
X168324544Y-122856759D01*
X168308866Y-122820700D01*
X168292081Y-122781908D01*
X168273340Y-122738415D01*
X168248742Y-122681158D01*
X168235534Y-122650400D01*
X168222709Y-122620573D01*
X168210248Y-122591677D01*
X168198135Y-122563713D01*
X168192204Y-122550080D01*
X168186352Y-122536681D01*
X168180579Y-122523514D01*
X168174882Y-122510581D01*
X168169259Y-122497881D01*
X168163707Y-122485414D01*
X168158225Y-122473180D01*
X168152811Y-122461179D01*
X168147461Y-122449412D01*
X168142175Y-122437877D01*
X168136949Y-122426576D01*
X168131782Y-122415509D01*
X168126671Y-122404674D01*
X168121615Y-122394074D01*
X168116611Y-122383706D01*
X168111657Y-122373572D01*
X168106750Y-122363671D01*
X168101889Y-122354004D01*
X168097072Y-122344571D01*
X168092296Y-122335371D01*
X168087559Y-122326404D01*
X168082858Y-122317672D01*
X168080522Y-122313393D01*
X168078193Y-122309173D01*
X168075873Y-122305011D01*
X168073560Y-122300907D01*
X168071255Y-122296862D01*
X168068958Y-122292875D01*
X168066667Y-122288947D01*
X168064384Y-122285077D01*
X168062106Y-122281266D01*
X168059835Y-122277513D01*
X168057570Y-122273819D01*
X168055311Y-122270183D01*
X168053057Y-122266605D01*
X168050809Y-122263086D01*
X168048565Y-122259626D01*
X168046325Y-122256223D01*
X168044091Y-122252880D01*
X168041860Y-122249595D01*
X168039633Y-122246368D01*
X168037409Y-122243200D01*
X168035189Y-122240090D01*
X168032972Y-122237039D01*
X168030757Y-122234046D01*
X168028545Y-122231112D01*
X168026335Y-122228236D01*
X168024127Y-122225419D01*
X168021921Y-122222660D01*
X168019716Y-122219960D01*
X168017512Y-122217318D01*
X168015309Y-122214735D01*
X168013106Y-122212210D01*
X168010904Y-122209744D01*
X168008701Y-122207336D01*
X168006499Y-122204987D01*
X168004295Y-122202697D01*
X168002091Y-122200465D01*
X167999886Y-122198292D01*
X167997680Y-122196177D01*
X167995472Y-122194120D01*
X167993262Y-122192123D01*
X167991050Y-122190183D01*
X167988835Y-122188303D01*
X167986618Y-122186481D01*
X167984397Y-122184717D01*
X167982174Y-122183012D01*
X167979946Y-122181366D01*
X167977716Y-122179778D01*
X167975481Y-122178249D01*
X167973241Y-122176779D01*
X167970997Y-122175367D01*
X167968748Y-122174013D01*
X167966494Y-122172718D01*
X167964235Y-122171482D01*
X167961969Y-122170305D01*
X167959698Y-122169186D01*
X167957421Y-122168125D01*
X167955137Y-122167124D01*
X167952846Y-122166181D01*
X167950548Y-122165296D01*
X167948243Y-122164471D01*
X167945930Y-122163703D01*
X167943610Y-122162995D01*
X167941281Y-122162345D01*
X167938944Y-122161754D01*
X167936598Y-122161221D01*
X167934243Y-122160747D01*
X167931879Y-122160332D01*
X167929505Y-122159975D01*
X167927122Y-122159678D01*
X167924728Y-122159438D01*
X167922324Y-122159258D01*
X167919910Y-122159136D01*
X167917485Y-122159073D01*
X167915048Y-122159068D01*
X167912601Y-122159122D01*
X167910141Y-122159235D01*
X167907670Y-122159407D01*
X167905186Y-122159637D01*
X167902690Y-122159926D01*
X167900181Y-122160273D01*
X167897659Y-122160680D01*
X167895124Y-122161145D01*
X167892575Y-122161669D01*
X167890012Y-122162251D01*
X167887435Y-122162893D01*
X167884844Y-122163593D01*
X167882238Y-122164351D01*
X167879617Y-122165169D01*
X167876981Y-122166045D01*
X167874329Y-122166980D01*
X167871662Y-122167974D01*
X167868979Y-122169026D01*
X167866279Y-122170137D01*
X167863563Y-122171307D01*
X167860830Y-122172536D01*
X167858079Y-122173824D01*
X167855312Y-122175170D01*
X167852527Y-122176575D01*
X167849723Y-122178039D01*
X167846902Y-122179561D01*
X167844062Y-122181143D01*
X167841204Y-122182783D01*
X167838326Y-122184482D01*
X167835429Y-122186240D01*
X167832513Y-122188056D01*
X167829576Y-122189932D01*
X167826620Y-122191866D01*
X167823643Y-122193859D01*
X167820646Y-122195911D01*
X167817628Y-122198022D01*
X167814588Y-122200191D01*
X167811527Y-122202419D01*
X167808444Y-122204707D01*
X167805340Y-122207053D01*
X167802213Y-122209457D01*
X167799063Y-122211921D01*
X167795891Y-122214444D01*
X167792695Y-122217025D01*
X167789477Y-122219665D01*
X167786234Y-122222364D01*
X167782968Y-122225122D01*
X167779677Y-122227939D01*
X167776362Y-122230815D01*
X167773023Y-122233749D01*
X167769658Y-122236743D01*
X167766268Y-122239795D01*
X167762853Y-122242906D01*
X167759412Y-122246076D01*
X167755944Y-122249305D01*
X167752451Y-122252593D01*
X167748930Y-122255940D01*
X167745383Y-122259346D01*
X167741809Y-122262810D01*
X167738207Y-122266334D01*
X167734577Y-122269916D01*
X167730920Y-122273557D01*
X167727234Y-122277258D01*
X167723520Y-122281017D01*
X167719777Y-122284835D01*
X167716005Y-122288712D01*
X167708372Y-122296643D01*
X167700620Y-122304810D01*
X167692747Y-122313212D01*
X167684749Y-122321850D01*
X167676625Y-122330725D01*
X167668374Y-122339835D01*
X167659991Y-122349181D01*
X167651477Y-122358763D01*
X167642827Y-122368581D01*
X167634041Y-122378635D01*
X167625115Y-122388925D01*
X167616049Y-122399451D01*
X167606839Y-122410213D01*
X167597483Y-122421211D01*
X167587980Y-122432446D01*
X167578326Y-122443917D01*
X167568521Y-122455624D01*
X167558561Y-122467567D01*
X167548445Y-122479746D01*
X167538170Y-122492162D01*
X167527734Y-122504814D01*
X167517136Y-122517703D01*
X167506372Y-122530828D01*
X167495441Y-122544189D01*
X167473068Y-122571622D01*
X167450000Y-122600000D01*
X170025000Y-122358706D02*
X169984438Y-122423885D01*
X169944032Y-122488669D01*
X169903527Y-122553468D01*
X169862520Y-122618930D01*
X169820292Y-122686203D01*
X169775315Y-122757724D01*
X169715753Y-122852293D01*
X169687323Y-122897423D01*
X169660652Y-122939789D01*
X169635668Y-122979538D01*
X169612297Y-123016816D01*
X169601194Y-123034575D01*
X169590466Y-123051771D01*
X169580104Y-123068423D01*
X169570100Y-123084549D01*
X169560444Y-123100167D01*
X169551127Y-123115296D01*
X169542140Y-123129953D01*
X169533473Y-123144158D01*
X169525118Y-123157929D01*
X169517065Y-123171283D01*
X169509305Y-123184240D01*
X169501828Y-123196817D01*
X169494627Y-123209033D01*
X169487691Y-123220906D01*
X169481011Y-123232455D01*
X169474578Y-123243698D01*
X169468383Y-123254652D01*
X169462417Y-123265337D01*
X169456670Y-123275771D01*
X169451134Y-123285972D01*
X169445799Y-123295958D01*
X169440656Y-123305748D01*
X169438153Y-123310576D01*
X169435695Y-123315361D01*
X169433281Y-123320106D01*
X169430909Y-123324813D01*
X169428577Y-123329485D01*
X169426286Y-123334124D01*
X169424034Y-123338732D01*
X169421819Y-123343312D01*
X169419641Y-123347866D01*
X169417498Y-123352396D01*
X169415390Y-123356904D01*
X169413314Y-123361393D01*
X169411270Y-123365864D01*
X169409258Y-123370322D01*
X169407274Y-123374766D01*
X169405320Y-123379201D01*
X169403392Y-123383628D01*
X169401491Y-123388049D01*
X169399615Y-123392466D01*
X169397762Y-123396883D01*
X169395933Y-123401301D01*
X169394125Y-123405723D01*
X169392337Y-123410151D01*
X169390569Y-123414587D01*
X169388819Y-123419033D01*
X169387086Y-123423492D01*
X169383666Y-123432457D01*
X169380300Y-123441501D01*
X169376979Y-123450642D01*
X169373694Y-123459898D01*
X169370436Y-123469287D01*
X169367195Y-123478828D01*
X169363963Y-123488540D01*
X169360729Y-123498439D01*
X169357486Y-123508545D01*
X169354223Y-123518877D01*
X169350931Y-123529451D01*
X169347602Y-123540287D01*
X169344227Y-123551404D01*
X169340795Y-123562818D01*
X169337298Y-123574549D01*
X169333726Y-123586615D01*
X169330071Y-123599035D01*
X169322473Y-123625006D01*
X169314431Y-123652611D01*
X169300886Y-123699067D01*
X169293559Y-123724076D01*
X169285816Y-123750364D01*
X169277623Y-123778000D01*
X169268946Y-123807052D01*
X169259750Y-123837589D01*
X169254946Y-123853435D01*
X169250000Y-123869679D01*
X160803884Y-117372419D02*
X160803884Y-116372419D01*
X160803884Y-116848609D02*
X161375312Y-116848609D01*
X161375312Y-117372419D02*
X161375312Y-116372419D01*
X162232455Y-117324800D02*
X162137217Y-117372419D01*
X162137217Y-117372419D02*
X161946741Y-117372419D01*
X161946741Y-117372419D02*
X161851503Y-117324800D01*
X161851503Y-117324800D02*
X161803884Y-117229561D01*
X161803884Y-117229561D02*
X161803884Y-116848609D01*
X161803884Y-116848609D02*
X161851503Y-116753371D01*
X161851503Y-116753371D02*
X161946741Y-116705752D01*
X161946741Y-116705752D02*
X162137217Y-116705752D01*
X162137217Y-116705752D02*
X162232455Y-116753371D01*
X162232455Y-116753371D02*
X162280074Y-116848609D01*
X162280074Y-116848609D02*
X162280074Y-116943847D01*
X162280074Y-116943847D02*
X161803884Y-117039085D01*
X162708646Y-116705752D02*
X162708646Y-117372419D01*
X162708646Y-116800990D02*
X162756265Y-116753371D01*
X162756265Y-116753371D02*
X162851503Y-116705752D01*
X162851503Y-116705752D02*
X162994360Y-116705752D01*
X162994360Y-116705752D02*
X163089598Y-116753371D01*
X163089598Y-116753371D02*
X163137217Y-116848609D01*
X163137217Y-116848609D02*
X163137217Y-117372419D01*
X163613408Y-117372419D02*
X163613408Y-116705752D01*
X163613408Y-116896228D02*
X163661027Y-116800990D01*
X163661027Y-116800990D02*
X163708646Y-116753371D01*
X163708646Y-116753371D02*
X163803884Y-116705752D01*
X163803884Y-116705752D02*
X163899122Y-116705752D01*
X164137218Y-116705752D02*
X164375313Y-117372419D01*
X164613408Y-116705752D02*
X164375313Y-117372419D01*
X164375313Y-117372419D02*
X164280075Y-117610514D01*
X164280075Y-117610514D02*
X164232456Y-117658133D01*
X164232456Y-117658133D02*
X164137218Y-117705752D01*
X165661028Y-116372419D02*
X165899123Y-117372419D01*
X165899123Y-117372419D02*
X166089599Y-116658133D01*
X166089599Y-116658133D02*
X166280075Y-117372419D01*
X166280075Y-117372419D02*
X166518171Y-116372419D01*
X167327694Y-117372419D02*
X167327694Y-116848609D01*
X167327694Y-116848609D02*
X167280075Y-116753371D01*
X167280075Y-116753371D02*
X167184837Y-116705752D01*
X167184837Y-116705752D02*
X166994361Y-116705752D01*
X166994361Y-116705752D02*
X166899123Y-116753371D01*
X167327694Y-117324800D02*
X167232456Y-117372419D01*
X167232456Y-117372419D02*
X166994361Y-117372419D01*
X166994361Y-117372419D02*
X166899123Y-117324800D01*
X166899123Y-117324800D02*
X166851504Y-117229561D01*
X166851504Y-117229561D02*
X166851504Y-117134323D01*
X166851504Y-117134323D02*
X166899123Y-117039085D01*
X166899123Y-117039085D02*
X166994361Y-116991466D01*
X166994361Y-116991466D02*
X167232456Y-116991466D01*
X167232456Y-116991466D02*
X167327694Y-116943847D01*
X168232456Y-116705752D02*
X168232456Y-117372419D01*
X167803885Y-116705752D02*
X167803885Y-117229561D01*
X167803885Y-117229561D02*
X167851504Y-117324800D01*
X167851504Y-117324800D02*
X167946742Y-117372419D01*
X167946742Y-117372419D02*
X168089599Y-117372419D01*
X168089599Y-117372419D02*
X168184837Y-117324800D01*
X168184837Y-117324800D02*
X168232456Y-117277180D01*
X168613409Y-116705752D02*
X169137218Y-116705752D01*
X169137218Y-116705752D02*
X168613409Y-117372419D01*
X168613409Y-117372419D02*
X169137218Y-117372419D01*
X169518171Y-117372419D02*
X169518171Y-116705752D01*
X169518171Y-116372419D02*
X169470552Y-116420038D01*
X169470552Y-116420038D02*
X169518171Y-116467657D01*
X169518171Y-116467657D02*
X169565790Y-116420038D01*
X169565790Y-116420038D02*
X169518171Y-116372419D01*
X169518171Y-116372419D02*
X169518171Y-116467657D01*
X169899123Y-116705752D02*
X170137218Y-117372419D01*
X170137218Y-117372419D02*
X170375313Y-116705752D01*
X171184837Y-116705752D02*
X171184837Y-117372419D01*
X170756266Y-116705752D02*
X170756266Y-117229561D01*
X170756266Y-117229561D02*
X170803885Y-117324800D01*
X170803885Y-117324800D02*
X170899123Y-117372419D01*
X170899123Y-117372419D02*
X171041980Y-117372419D01*
X171041980Y-117372419D02*
X171137218Y-117324800D01*
X171137218Y-117324800D02*
X171184837Y-117277180D01*
X171518171Y-116705752D02*
X171899123Y-116705752D01*
X171661028Y-117372419D02*
X171661028Y-116515276D01*
X171661028Y-116515276D02*
X171708647Y-116420038D01*
X171708647Y-116420038D02*
X171803885Y-116372419D01*
X171803885Y-116372419D02*
X171899123Y-116372419D01*
X172089600Y-116705752D02*
X172470552Y-116705752D01*
X172232457Y-117372419D02*
X172232457Y-116515276D01*
X172232457Y-116515276D02*
X172280076Y-116420038D01*
X172280076Y-116420038D02*
X172375314Y-116372419D01*
X172375314Y-116372419D02*
X172470552Y-116372419D01*
D11*
X160955826Y-115369819D02*
X160955826Y-114369819D01*
X160955826Y-114846009D02*
X161812969Y-114846009D01*
X161812969Y-115369819D02*
X161812969Y-114369819D01*
X162384398Y-114369819D02*
X162741541Y-115369819D01*
X162741541Y-115369819D02*
X163027255Y-114655533D01*
X163027255Y-114655533D02*
X163312970Y-115369819D01*
X163312970Y-115369819D02*
X163670113Y-114369819D01*
X164741541Y-114846009D02*
X164955827Y-114893628D01*
X164955827Y-114893628D02*
X165027256Y-114941247D01*
X165027256Y-114941247D02*
X165098684Y-115036485D01*
X165098684Y-115036485D02*
X165098684Y-115179342D01*
X165098684Y-115179342D02*
X165027256Y-115274580D01*
X165027256Y-115274580D02*
X164955827Y-115322200D01*
X164955827Y-115322200D02*
X164812970Y-115369819D01*
X164812970Y-115369819D02*
X164241541Y-115369819D01*
X164241541Y-115369819D02*
X164241541Y-114369819D01*
X164241541Y-114369819D02*
X164741541Y-114369819D01*
X164741541Y-114369819D02*
X164884399Y-114417438D01*
X164884399Y-114417438D02*
X164955827Y-114465057D01*
X164955827Y-114465057D02*
X165027256Y-114560295D01*
X165027256Y-114560295D02*
X165027256Y-114655533D01*
X165027256Y-114655533D02*
X164955827Y-114750771D01*
X164955827Y-114750771D02*
X164884399Y-114798390D01*
X164884399Y-114798390D02*
X164741541Y-114846009D01*
X164741541Y-114846009D02*
X164241541Y-114846009D01*
X165955827Y-115369819D02*
X165812970Y-115322200D01*
X165812970Y-115322200D02*
X165741541Y-115226961D01*
X165741541Y-115226961D02*
X165741541Y-114369819D01*
X167170113Y-114703152D02*
X167170113Y-115369819D01*
X166527255Y-114703152D02*
X166527255Y-115226961D01*
X166527255Y-115226961D02*
X166598684Y-115322200D01*
X166598684Y-115322200D02*
X166741541Y-115369819D01*
X166741541Y-115369819D02*
X166955827Y-115369819D01*
X166955827Y-115369819D02*
X167098684Y-115322200D01*
X167098684Y-115322200D02*
X167170113Y-115274580D01*
X168527256Y-115369819D02*
X168527256Y-114369819D01*
X168527256Y-115322200D02*
X168384398Y-115369819D01*
X168384398Y-115369819D02*
X168098684Y-115369819D01*
X168098684Y-115369819D02*
X167955827Y-115322200D01*
X167955827Y-115322200D02*
X167884398Y-115274580D01*
X167884398Y-115274580D02*
X167812970Y-115179342D01*
X167812970Y-115179342D02*
X167812970Y-114893628D01*
X167812970Y-114893628D02*
X167884398Y-114798390D01*
X167884398Y-114798390D02*
X167955827Y-114750771D01*
X167955827Y-114750771D02*
X168098684Y-114703152D01*
X168098684Y-114703152D02*
X168384398Y-114703152D01*
X168384398Y-114703152D02*
X168527256Y-114750771D01*
X169241541Y-115369819D02*
X169241541Y-114369819D01*
X169241541Y-114369819D02*
X169812970Y-114369819D01*
X169812970Y-114369819D02*
X169955827Y-114417438D01*
X169955827Y-114417438D02*
X170027256Y-114465057D01*
X170027256Y-114465057D02*
X170098684Y-114560295D01*
X170098684Y-114560295D02*
X170098684Y-114703152D01*
X170098684Y-114703152D02*
X170027256Y-114798390D01*
X170027256Y-114798390D02*
X169955827Y-114846009D01*
X169955827Y-114846009D02*
X169812970Y-114893628D01*
X169812970Y-114893628D02*
X169241541Y-114893628D01*
X171384399Y-115369819D02*
X171384399Y-114846009D01*
X171384399Y-114846009D02*
X171312970Y-114750771D01*
X171312970Y-114750771D02*
X171170113Y-114703152D01*
X171170113Y-114703152D02*
X170884399Y-114703152D01*
X170884399Y-114703152D02*
X170741541Y-114750771D01*
X171384399Y-115322200D02*
X171241541Y-115369819D01*
X171241541Y-115369819D02*
X170884399Y-115369819D01*
X170884399Y-115369819D02*
X170741541Y-115322200D01*
X170741541Y-115322200D02*
X170670113Y-115226961D01*
X170670113Y-115226961D02*
X170670113Y-115131723D01*
X170670113Y-115131723D02*
X170741541Y-115036485D01*
X170741541Y-115036485D02*
X170884399Y-114988866D01*
X170884399Y-114988866D02*
X171241541Y-114988866D01*
X171241541Y-114988866D02*
X171384399Y-114941247D01*
X172741542Y-115369819D02*
X172741542Y-114369819D01*
X172741542Y-115322200D02*
X172598684Y-115369819D01*
X172598684Y-115369819D02*
X172312970Y-115369819D01*
X172312970Y-115369819D02*
X172170113Y-115322200D01*
X172170113Y-115322200D02*
X172098684Y-115274580D01*
X172098684Y-115274580D02*
X172027256Y-115179342D01*
X172027256Y-115179342D02*
X172027256Y-114893628D01*
X172027256Y-114893628D02*
X172098684Y-114798390D01*
X172098684Y-114798390D02*
X172170113Y-114750771D01*
X172170113Y-114750771D02*
X172312970Y-114703152D01*
X172312970Y-114703152D02*
X172598684Y-114703152D01*
X172598684Y-114703152D02*
X172741542Y-114750771D01*
X174384399Y-114369819D02*
X174884399Y-115369819D01*
X174884399Y-115369819D02*
X175384399Y-114369819D01*
X176670113Y-115369819D02*
X175812970Y-115369819D01*
X176241541Y-115369819D02*
X176241541Y-114369819D01*
X176241541Y-114369819D02*
X176098684Y-114512676D01*
X176098684Y-114512676D02*
X175955827Y-114607914D01*
X175955827Y-114607914D02*
X175812970Y-114655533D01*
D12*
X149697666Y-67016985D02*
X149697666Y-67736652D01*
X149697666Y-67736652D02*
X149740000Y-67821318D01*
X149740000Y-67821318D02*
X149782333Y-67863652D01*
X149782333Y-67863652D02*
X149867000Y-67905985D01*
X149867000Y-67905985D02*
X150036333Y-67905985D01*
X150036333Y-67905985D02*
X150121000Y-67863652D01*
X150121000Y-67863652D02*
X150163333Y-67821318D01*
X150163333Y-67821318D02*
X150205666Y-67736652D01*
X150205666Y-67736652D02*
X150205666Y-67016985D01*
X151094666Y-67905985D02*
X150586666Y-67905985D01*
X150840666Y-67905985D02*
X150840666Y-67016985D01*
X150840666Y-67016985D02*
X150755999Y-67143985D01*
X150755999Y-67143985D02*
X150671333Y-67228652D01*
X150671333Y-67228652D02*
X150586666Y-67270985D01*
D11*
X146541667Y-62154819D02*
X147208333Y-63154819D01*
X147208333Y-62154819D02*
X146541667Y-63154819D01*
X147589286Y-63154819D02*
X147589286Y-62154819D01*
X148017857Y-62869104D02*
X148494047Y-62869104D01*
X147922619Y-63154819D02*
X148255952Y-62154819D01*
X148255952Y-62154819D02*
X148589285Y-63154819D01*
X149113095Y-62154819D02*
X149303571Y-62154819D01*
X149303571Y-62154819D02*
X149398809Y-62202438D01*
X149398809Y-62202438D02*
X149494047Y-62297676D01*
X149494047Y-62297676D02*
X149541666Y-62488152D01*
X149541666Y-62488152D02*
X149541666Y-62821485D01*
X149541666Y-62821485D02*
X149494047Y-63011961D01*
X149494047Y-63011961D02*
X149398809Y-63107200D01*
X149398809Y-63107200D02*
X149303571Y-63154819D01*
X149303571Y-63154819D02*
X149113095Y-63154819D01*
X149113095Y-63154819D02*
X149017857Y-63107200D01*
X149017857Y-63107200D02*
X148922619Y-63011961D01*
X148922619Y-63011961D02*
X148875000Y-62821485D01*
X148875000Y-62821485D02*
X148875000Y-62488152D01*
X148875000Y-62488152D02*
X148922619Y-62297676D01*
X148922619Y-62297676D02*
X149017857Y-62202438D01*
X149017857Y-62202438D02*
X149113095Y-62154819D01*
X150732143Y-63154819D02*
X150732143Y-62154819D01*
X150732143Y-62631009D02*
X151303571Y-62631009D01*
X151303571Y-63154819D02*
X151303571Y-62154819D01*
X151779762Y-62631009D02*
X152113095Y-62631009D01*
X152255952Y-63154819D02*
X151779762Y-63154819D01*
X151779762Y-63154819D02*
X151779762Y-62154819D01*
X151779762Y-62154819D02*
X152255952Y-62154819D01*
X153255952Y-63154819D02*
X152922619Y-62678628D01*
X152684524Y-63154819D02*
X152684524Y-62154819D01*
X152684524Y-62154819D02*
X153065476Y-62154819D01*
X153065476Y-62154819D02*
X153160714Y-62202438D01*
X153160714Y-62202438D02*
X153208333Y-62250057D01*
X153208333Y-62250057D02*
X153255952Y-62345295D01*
X153255952Y-62345295D02*
X153255952Y-62488152D01*
X153255952Y-62488152D02*
X153208333Y-62583390D01*
X153208333Y-62583390D02*
X153160714Y-62631009D01*
X153160714Y-62631009D02*
X153065476Y-62678628D01*
X153065476Y-62678628D02*
X152684524Y-62678628D01*
X153684524Y-62631009D02*
X154017857Y-62631009D01*
X154160714Y-63154819D02*
X153684524Y-63154819D01*
X153684524Y-63154819D02*
X153684524Y-62154819D01*
X153684524Y-62154819D02*
X154160714Y-62154819D01*
X145683595Y-65907200D02*
X145826452Y-65954819D01*
X145826452Y-65954819D02*
X146064547Y-65954819D01*
X146064547Y-65954819D02*
X146159785Y-65907200D01*
X146159785Y-65907200D02*
X146207404Y-65859580D01*
X146207404Y-65859580D02*
X146255023Y-65764342D01*
X146255023Y-65764342D02*
X146255023Y-65669104D01*
X146255023Y-65669104D02*
X146207404Y-65573866D01*
X146207404Y-65573866D02*
X146159785Y-65526247D01*
X146159785Y-65526247D02*
X146064547Y-65478628D01*
X146064547Y-65478628D02*
X145874071Y-65431009D01*
X145874071Y-65431009D02*
X145778833Y-65383390D01*
X145778833Y-65383390D02*
X145731214Y-65335771D01*
X145731214Y-65335771D02*
X145683595Y-65240533D01*
X145683595Y-65240533D02*
X145683595Y-65145295D01*
X145683595Y-65145295D02*
X145731214Y-65050057D01*
X145731214Y-65050057D02*
X145778833Y-65002438D01*
X145778833Y-65002438D02*
X145874071Y-64954819D01*
X145874071Y-64954819D02*
X146112166Y-64954819D01*
X146112166Y-64954819D02*
X146255023Y-65002438D01*
X147064547Y-65907200D02*
X146969309Y-65954819D01*
X146969309Y-65954819D02*
X146778833Y-65954819D01*
X146778833Y-65954819D02*
X146683595Y-65907200D01*
X146683595Y-65907200D02*
X146635976Y-65811961D01*
X146635976Y-65811961D02*
X146635976Y-65431009D01*
X146635976Y-65431009D02*
X146683595Y-65335771D01*
X146683595Y-65335771D02*
X146778833Y-65288152D01*
X146778833Y-65288152D02*
X146969309Y-65288152D01*
X146969309Y-65288152D02*
X147064547Y-65335771D01*
X147064547Y-65335771D02*
X147112166Y-65431009D01*
X147112166Y-65431009D02*
X147112166Y-65526247D01*
X147112166Y-65526247D02*
X146635976Y-65621485D01*
X147921690Y-65907200D02*
X147826452Y-65954819D01*
X147826452Y-65954819D02*
X147635976Y-65954819D01*
X147635976Y-65954819D02*
X147540738Y-65907200D01*
X147540738Y-65907200D02*
X147493119Y-65811961D01*
X147493119Y-65811961D02*
X147493119Y-65431009D01*
X147493119Y-65431009D02*
X147540738Y-65335771D01*
X147540738Y-65335771D02*
X147635976Y-65288152D01*
X147635976Y-65288152D02*
X147826452Y-65288152D01*
X147826452Y-65288152D02*
X147921690Y-65335771D01*
X147921690Y-65335771D02*
X147969309Y-65431009D01*
X147969309Y-65431009D02*
X147969309Y-65526247D01*
X147969309Y-65526247D02*
X147493119Y-65621485D01*
X148778833Y-65907200D02*
X148683595Y-65954819D01*
X148683595Y-65954819D02*
X148493119Y-65954819D01*
X148493119Y-65954819D02*
X148397881Y-65907200D01*
X148397881Y-65907200D02*
X148350262Y-65811961D01*
X148350262Y-65811961D02*
X148350262Y-65431009D01*
X148350262Y-65431009D02*
X148397881Y-65335771D01*
X148397881Y-65335771D02*
X148493119Y-65288152D01*
X148493119Y-65288152D02*
X148683595Y-65288152D01*
X148683595Y-65288152D02*
X148778833Y-65335771D01*
X148778833Y-65335771D02*
X148826452Y-65431009D01*
X148826452Y-65431009D02*
X148826452Y-65526247D01*
X148826452Y-65526247D02*
X148350262Y-65621485D01*
X149683595Y-65954819D02*
X149683595Y-64954819D01*
X149683595Y-65907200D02*
X149588357Y-65954819D01*
X149588357Y-65954819D02*
X149397881Y-65954819D01*
X149397881Y-65954819D02*
X149302643Y-65907200D01*
X149302643Y-65907200D02*
X149255024Y-65859580D01*
X149255024Y-65859580D02*
X149207405Y-65764342D01*
X149207405Y-65764342D02*
X149207405Y-65478628D01*
X149207405Y-65478628D02*
X149255024Y-65383390D01*
X149255024Y-65383390D02*
X149302643Y-65335771D01*
X149302643Y-65335771D02*
X149397881Y-65288152D01*
X149397881Y-65288152D02*
X149588357Y-65288152D01*
X149588357Y-65288152D02*
X149683595Y-65335771D01*
X150874072Y-65907200D02*
X151016929Y-65954819D01*
X151016929Y-65954819D02*
X151255024Y-65954819D01*
X151255024Y-65954819D02*
X151350262Y-65907200D01*
X151350262Y-65907200D02*
X151397881Y-65859580D01*
X151397881Y-65859580D02*
X151445500Y-65764342D01*
X151445500Y-65764342D02*
X151445500Y-65669104D01*
X151445500Y-65669104D02*
X151397881Y-65573866D01*
X151397881Y-65573866D02*
X151350262Y-65526247D01*
X151350262Y-65526247D02*
X151255024Y-65478628D01*
X151255024Y-65478628D02*
X151064548Y-65431009D01*
X151064548Y-65431009D02*
X150969310Y-65383390D01*
X150969310Y-65383390D02*
X150921691Y-65335771D01*
X150921691Y-65335771D02*
X150874072Y-65240533D01*
X150874072Y-65240533D02*
X150874072Y-65145295D01*
X150874072Y-65145295D02*
X150921691Y-65050057D01*
X150921691Y-65050057D02*
X150969310Y-65002438D01*
X150969310Y-65002438D02*
X151064548Y-64954819D01*
X151064548Y-64954819D02*
X151302643Y-64954819D01*
X151302643Y-64954819D02*
X151445500Y-65002438D01*
X151731215Y-65288152D02*
X152112167Y-65288152D01*
X151874072Y-64954819D02*
X151874072Y-65811961D01*
X151874072Y-65811961D02*
X151921691Y-65907200D01*
X151921691Y-65907200D02*
X152016929Y-65954819D01*
X152016929Y-65954819D02*
X152112167Y-65954819D01*
X152874072Y-65288152D02*
X152874072Y-65954819D01*
X152445501Y-65288152D02*
X152445501Y-65811961D01*
X152445501Y-65811961D02*
X152493120Y-65907200D01*
X152493120Y-65907200D02*
X152588358Y-65954819D01*
X152588358Y-65954819D02*
X152731215Y-65954819D01*
X152731215Y-65954819D02*
X152826453Y-65907200D01*
X152826453Y-65907200D02*
X152874072Y-65859580D01*
X153778834Y-65954819D02*
X153778834Y-64954819D01*
X153778834Y-65907200D02*
X153683596Y-65954819D01*
X153683596Y-65954819D02*
X153493120Y-65954819D01*
X153493120Y-65954819D02*
X153397882Y-65907200D01*
X153397882Y-65907200D02*
X153350263Y-65859580D01*
X153350263Y-65859580D02*
X153302644Y-65764342D01*
X153302644Y-65764342D02*
X153302644Y-65478628D01*
X153302644Y-65478628D02*
X153350263Y-65383390D01*
X153350263Y-65383390D02*
X153397882Y-65335771D01*
X153397882Y-65335771D02*
X153493120Y-65288152D01*
X153493120Y-65288152D02*
X153683596Y-65288152D01*
X153683596Y-65288152D02*
X153778834Y-65335771D01*
X154255025Y-65954819D02*
X154255025Y-65288152D01*
X154255025Y-64954819D02*
X154207406Y-65002438D01*
X154207406Y-65002438D02*
X154255025Y-65050057D01*
X154255025Y-65050057D02*
X154302644Y-65002438D01*
X154302644Y-65002438D02*
X154255025Y-64954819D01*
X154255025Y-64954819D02*
X154255025Y-65050057D01*
X154874072Y-65954819D02*
X154778834Y-65907200D01*
X154778834Y-65907200D02*
X154731215Y-65859580D01*
X154731215Y-65859580D02*
X154683596Y-65764342D01*
X154683596Y-65764342D02*
X154683596Y-65478628D01*
X154683596Y-65478628D02*
X154731215Y-65383390D01*
X154731215Y-65383390D02*
X154778834Y-65335771D01*
X154778834Y-65335771D02*
X154874072Y-65288152D01*
X154874072Y-65288152D02*
X155016929Y-65288152D01*
X155016929Y-65288152D02*
X155112167Y-65335771D01*
X155112167Y-65335771D02*
X155159786Y-65383390D01*
X155159786Y-65383390D02*
X155207405Y-65478628D01*
X155207405Y-65478628D02*
X155207405Y-65764342D01*
X155207405Y-65764342D02*
X155159786Y-65859580D01*
X155159786Y-65859580D02*
X155112167Y-65907200D01*
X155112167Y-65907200D02*
X155016929Y-65954819D01*
X155016929Y-65954819D02*
X154874072Y-65954819D01*
X149126667Y-111533200D02*
X149269524Y-111580819D01*
X149269524Y-111580819D02*
X149507619Y-111580819D01*
X149507619Y-111580819D02*
X149602857Y-111533200D01*
X149602857Y-111533200D02*
X149650476Y-111485580D01*
X149650476Y-111485580D02*
X149698095Y-111390342D01*
X149698095Y-111390342D02*
X149698095Y-111295104D01*
X149698095Y-111295104D02*
X149650476Y-111199866D01*
X149650476Y-111199866D02*
X149602857Y-111152247D01*
X149602857Y-111152247D02*
X149507619Y-111104628D01*
X149507619Y-111104628D02*
X149317143Y-111057009D01*
X149317143Y-111057009D02*
X149221905Y-111009390D01*
X149221905Y-111009390D02*
X149174286Y-110961771D01*
X149174286Y-110961771D02*
X149126667Y-110866533D01*
X149126667Y-110866533D02*
X149126667Y-110771295D01*
X149126667Y-110771295D02*
X149174286Y-110676057D01*
X149174286Y-110676057D02*
X149221905Y-110628438D01*
X149221905Y-110628438D02*
X149317143Y-110580819D01*
X149317143Y-110580819D02*
X149555238Y-110580819D01*
X149555238Y-110580819D02*
X149698095Y-110628438D01*
X150031429Y-110580819D02*
X150269524Y-111580819D01*
X150269524Y-111580819D02*
X150460000Y-110866533D01*
X150460000Y-110866533D02*
X150650476Y-111580819D01*
X150650476Y-111580819D02*
X150888572Y-110580819D01*
X151174286Y-110580819D02*
X151793333Y-110580819D01*
X151793333Y-110580819D02*
X151460000Y-110961771D01*
X151460000Y-110961771D02*
X151602857Y-110961771D01*
X151602857Y-110961771D02*
X151698095Y-111009390D01*
X151698095Y-111009390D02*
X151745714Y-111057009D01*
X151745714Y-111057009D02*
X151793333Y-111152247D01*
X151793333Y-111152247D02*
X151793333Y-111390342D01*
X151793333Y-111390342D02*
X151745714Y-111485580D01*
X151745714Y-111485580D02*
X151698095Y-111533200D01*
X151698095Y-111533200D02*
X151602857Y-111580819D01*
X151602857Y-111580819D02*
X151317143Y-111580819D01*
X151317143Y-111580819D02*
X151221905Y-111533200D01*
X151221905Y-111533200D02*
X151174286Y-111485580D01*
X149126667Y-92533200D02*
X149269524Y-92580819D01*
X149269524Y-92580819D02*
X149507619Y-92580819D01*
X149507619Y-92580819D02*
X149602857Y-92533200D01*
X149602857Y-92533200D02*
X149650476Y-92485580D01*
X149650476Y-92485580D02*
X149698095Y-92390342D01*
X149698095Y-92390342D02*
X149698095Y-92295104D01*
X149698095Y-92295104D02*
X149650476Y-92199866D01*
X149650476Y-92199866D02*
X149602857Y-92152247D01*
X149602857Y-92152247D02*
X149507619Y-92104628D01*
X149507619Y-92104628D02*
X149317143Y-92057009D01*
X149317143Y-92057009D02*
X149221905Y-92009390D01*
X149221905Y-92009390D02*
X149174286Y-91961771D01*
X149174286Y-91961771D02*
X149126667Y-91866533D01*
X149126667Y-91866533D02*
X149126667Y-91771295D01*
X149126667Y-91771295D02*
X149174286Y-91676057D01*
X149174286Y-91676057D02*
X149221905Y-91628438D01*
X149221905Y-91628438D02*
X149317143Y-91580819D01*
X149317143Y-91580819D02*
X149555238Y-91580819D01*
X149555238Y-91580819D02*
X149698095Y-91628438D01*
X150031429Y-91580819D02*
X150269524Y-92580819D01*
X150269524Y-92580819D02*
X150460000Y-91866533D01*
X150460000Y-91866533D02*
X150650476Y-92580819D01*
X150650476Y-92580819D02*
X150888572Y-91580819D01*
X151221905Y-91676057D02*
X151269524Y-91628438D01*
X151269524Y-91628438D02*
X151364762Y-91580819D01*
X151364762Y-91580819D02*
X151602857Y-91580819D01*
X151602857Y-91580819D02*
X151698095Y-91628438D01*
X151698095Y-91628438D02*
X151745714Y-91676057D01*
X151745714Y-91676057D02*
X151793333Y-91771295D01*
X151793333Y-91771295D02*
X151793333Y-91866533D01*
X151793333Y-91866533D02*
X151745714Y-92009390D01*
X151745714Y-92009390D02*
X151174286Y-92580819D01*
X151174286Y-92580819D02*
X151793333Y-92580819D01*
X161207200Y-109533332D02*
X161254819Y-109390475D01*
X161254819Y-109390475D02*
X161254819Y-109152380D01*
X161254819Y-109152380D02*
X161207200Y-109057142D01*
X161207200Y-109057142D02*
X161159580Y-109009523D01*
X161159580Y-109009523D02*
X161064342Y-108961904D01*
X161064342Y-108961904D02*
X160969104Y-108961904D01*
X160969104Y-108961904D02*
X160873866Y-109009523D01*
X160873866Y-109009523D02*
X160826247Y-109057142D01*
X160826247Y-109057142D02*
X160778628Y-109152380D01*
X160778628Y-109152380D02*
X160731009Y-109342856D01*
X160731009Y-109342856D02*
X160683390Y-109438094D01*
X160683390Y-109438094D02*
X160635771Y-109485713D01*
X160635771Y-109485713D02*
X160540533Y-109533332D01*
X160540533Y-109533332D02*
X160445295Y-109533332D01*
X160445295Y-109533332D02*
X160350057Y-109485713D01*
X160350057Y-109485713D02*
X160302438Y-109438094D01*
X160302438Y-109438094D02*
X160254819Y-109342856D01*
X160254819Y-109342856D02*
X160254819Y-109104761D01*
X160254819Y-109104761D02*
X160302438Y-108961904D01*
X160254819Y-108628570D02*
X161254819Y-108390475D01*
X161254819Y-108390475D02*
X160540533Y-108199999D01*
X160540533Y-108199999D02*
X161254819Y-108009523D01*
X161254819Y-108009523D02*
X160254819Y-107771428D01*
X160254819Y-106914285D02*
X160254819Y-107390475D01*
X160254819Y-107390475D02*
X160731009Y-107438094D01*
X160731009Y-107438094D02*
X160683390Y-107390475D01*
X160683390Y-107390475D02*
X160635771Y-107295237D01*
X160635771Y-107295237D02*
X160635771Y-107057142D01*
X160635771Y-107057142D02*
X160683390Y-106961904D01*
X160683390Y-106961904D02*
X160731009Y-106914285D01*
X160731009Y-106914285D02*
X160826247Y-106866666D01*
X160826247Y-106866666D02*
X161064342Y-106866666D01*
X161064342Y-106866666D02*
X161159580Y-106914285D01*
X161159580Y-106914285D02*
X161207200Y-106961904D01*
X161207200Y-106961904D02*
X161254819Y-107057142D01*
X161254819Y-107057142D02*
X161254819Y-107295237D01*
X161254819Y-107295237D02*
X161207200Y-107390475D01*
X161207200Y-107390475D02*
X161159580Y-107438094D01*
X167238095Y-54454819D02*
X167238095Y-55264342D01*
X167238095Y-55264342D02*
X167285714Y-55359580D01*
X167285714Y-55359580D02*
X167333333Y-55407200D01*
X167333333Y-55407200D02*
X167428571Y-55454819D01*
X167428571Y-55454819D02*
X167619047Y-55454819D01*
X167619047Y-55454819D02*
X167714285Y-55407200D01*
X167714285Y-55407200D02*
X167761904Y-55359580D01*
X167761904Y-55359580D02*
X167809523Y-55264342D01*
X167809523Y-55264342D02*
X167809523Y-54454819D01*
X168238095Y-54550057D02*
X168285714Y-54502438D01*
X168285714Y-54502438D02*
X168380952Y-54454819D01*
X168380952Y-54454819D02*
X168619047Y-54454819D01*
X168619047Y-54454819D02*
X168714285Y-54502438D01*
X168714285Y-54502438D02*
X168761904Y-54550057D01*
X168761904Y-54550057D02*
X168809523Y-54645295D01*
X168809523Y-54645295D02*
X168809523Y-54740533D01*
X168809523Y-54740533D02*
X168761904Y-54883390D01*
X168761904Y-54883390D02*
X168190476Y-55454819D01*
X168190476Y-55454819D02*
X168809523Y-55454819D01*
X149126667Y-73533200D02*
X149269524Y-73580819D01*
X149269524Y-73580819D02*
X149507619Y-73580819D01*
X149507619Y-73580819D02*
X149602857Y-73533200D01*
X149602857Y-73533200D02*
X149650476Y-73485580D01*
X149650476Y-73485580D02*
X149698095Y-73390342D01*
X149698095Y-73390342D02*
X149698095Y-73295104D01*
X149698095Y-73295104D02*
X149650476Y-73199866D01*
X149650476Y-73199866D02*
X149602857Y-73152247D01*
X149602857Y-73152247D02*
X149507619Y-73104628D01*
X149507619Y-73104628D02*
X149317143Y-73057009D01*
X149317143Y-73057009D02*
X149221905Y-73009390D01*
X149221905Y-73009390D02*
X149174286Y-72961771D01*
X149174286Y-72961771D02*
X149126667Y-72866533D01*
X149126667Y-72866533D02*
X149126667Y-72771295D01*
X149126667Y-72771295D02*
X149174286Y-72676057D01*
X149174286Y-72676057D02*
X149221905Y-72628438D01*
X149221905Y-72628438D02*
X149317143Y-72580819D01*
X149317143Y-72580819D02*
X149555238Y-72580819D01*
X149555238Y-72580819D02*
X149698095Y-72628438D01*
X150031429Y-72580819D02*
X150269524Y-73580819D01*
X150269524Y-73580819D02*
X150460000Y-72866533D01*
X150460000Y-72866533D02*
X150650476Y-73580819D01*
X150650476Y-73580819D02*
X150888572Y-72580819D01*
X151793333Y-73580819D02*
X151221905Y-73580819D01*
X151507619Y-73580819D02*
X151507619Y-72580819D01*
X151507619Y-72580819D02*
X151412381Y-72723676D01*
X151412381Y-72723676D02*
X151317143Y-72818914D01*
X151317143Y-72818914D02*
X151221905Y-72866533D01*
D13*
X165678572Y-126249757D02*
X165535715Y-126178328D01*
X165535715Y-126178328D02*
X165321429Y-126178328D01*
X165321429Y-126178328D02*
X165107143Y-126249757D01*
X165107143Y-126249757D02*
X164964286Y-126392614D01*
X164964286Y-126392614D02*
X164892857Y-126535471D01*
X164892857Y-126535471D02*
X164821429Y-126821185D01*
X164821429Y-126821185D02*
X164821429Y-127035471D01*
X164821429Y-127035471D02*
X164892857Y-127321185D01*
X164892857Y-127321185D02*
X164964286Y-127464042D01*
X164964286Y-127464042D02*
X165107143Y-127606900D01*
X165107143Y-127606900D02*
X165321429Y-127678328D01*
X165321429Y-127678328D02*
X165464286Y-127678328D01*
X165464286Y-127678328D02*
X165678572Y-127606900D01*
X165678572Y-127606900D02*
X165750000Y-127535471D01*
X165750000Y-127535471D02*
X165750000Y-127035471D01*
X165750000Y-127035471D02*
X165464286Y-127035471D01*
X166607143Y-126178328D02*
X166607143Y-126535471D01*
X166250000Y-126392614D02*
X166607143Y-126535471D01*
X166607143Y-126535471D02*
X166964286Y-126392614D01*
X166392857Y-126821185D02*
X166607143Y-126535471D01*
X166607143Y-126535471D02*
X166821429Y-126821185D01*
X167750000Y-126178328D02*
X167750000Y-126535471D01*
X167392857Y-126392614D02*
X167750000Y-126535471D01*
X167750000Y-126535471D02*
X168107143Y-126392614D01*
X167535714Y-126821185D02*
X167750000Y-126535471D01*
X167750000Y-126535471D02*
X167964286Y-126821185D01*
X168892857Y-126178328D02*
X168892857Y-126535471D01*
X168535714Y-126392614D02*
X168892857Y-126535471D01*
X168892857Y-126535471D02*
X169250000Y-126392614D01*
X168678571Y-126821185D02*
X168892857Y-126535471D01*
X168892857Y-126535471D02*
X169107143Y-126821185D01*
D11*
X149126667Y-130578200D02*
X149269524Y-130625819D01*
X149269524Y-130625819D02*
X149507619Y-130625819D01*
X149507619Y-130625819D02*
X149602857Y-130578200D01*
X149602857Y-130578200D02*
X149650476Y-130530580D01*
X149650476Y-130530580D02*
X149698095Y-130435342D01*
X149698095Y-130435342D02*
X149698095Y-130340104D01*
X149698095Y-130340104D02*
X149650476Y-130244866D01*
X149650476Y-130244866D02*
X149602857Y-130197247D01*
X149602857Y-130197247D02*
X149507619Y-130149628D01*
X149507619Y-130149628D02*
X149317143Y-130102009D01*
X149317143Y-130102009D02*
X149221905Y-130054390D01*
X149221905Y-130054390D02*
X149174286Y-130006771D01*
X149174286Y-130006771D02*
X149126667Y-129911533D01*
X149126667Y-129911533D02*
X149126667Y-129816295D01*
X149126667Y-129816295D02*
X149174286Y-129721057D01*
X149174286Y-129721057D02*
X149221905Y-129673438D01*
X149221905Y-129673438D02*
X149317143Y-129625819D01*
X149317143Y-129625819D02*
X149555238Y-129625819D01*
X149555238Y-129625819D02*
X149698095Y-129673438D01*
X150031429Y-129625819D02*
X150269524Y-130625819D01*
X150269524Y-130625819D02*
X150460000Y-129911533D01*
X150460000Y-129911533D02*
X150650476Y-130625819D01*
X150650476Y-130625819D02*
X150888572Y-129625819D01*
X151698095Y-129959152D02*
X151698095Y-130625819D01*
X151460000Y-129578200D02*
X151221905Y-130292485D01*
X151221905Y-130292485D02*
X151840952Y-130292485D01*
%TO.C,U1*%
D14*
X141475000Y-52120000D02*
X141475000Y-69120000D01*
X143475000Y-71120000D02*
X157275000Y-71120000D01*
X145875000Y-48695970D02*
X154875000Y-48695970D01*
X145875000Y-56049270D02*
X145875000Y-48695970D01*
X154875000Y-48695970D02*
X154875000Y-56049270D01*
X154875000Y-56049270D02*
X145875000Y-56049270D01*
X157275000Y-50120910D02*
X143475000Y-50120910D01*
X159275000Y-69120000D02*
X159275000Y-52120000D01*
D15*
X141475000Y-52120000D02*
G75*
G02*
X143475000Y-50120000I2044612J-44612D01*
G01*
X143475000Y-71120000D02*
G75*
G02*
X141475000Y-69120000I44857J2044857D01*
G01*
X157275000Y-50120000D02*
G75*
G02*
X159275000Y-52120000I-44600J-2044600D01*
G01*
X159275000Y-69120000D02*
G75*
G02*
X157275000Y-71120000I-2000000J0D01*
G01*
D16*
X139502000Y-51820000D02*
G75*
G02*
X139248000Y-51820000I-127000J0D01*
G01*
X139248000Y-51820000D02*
G75*
G02*
X139502000Y-51820000I127000J0D01*
G01*
D17*
X141487285Y-52058295D02*
X141490333Y-52009527D01*
X141494397Y-51960506D01*
X141487285Y-52058295D01*
X159262713Y-69190850D02*
X159259665Y-69239618D01*
X159255601Y-69288639D01*
X159250268Y-69337407D01*
X159243664Y-69386175D01*
X159236044Y-69434690D01*
X159227153Y-69482950D01*
X159217248Y-69530955D01*
X159264492Y-69141574D01*
X159262713Y-69190850D01*
%TO.C,SW3*%
D15*
X143475000Y-112015000D02*
X157445000Y-112015000D01*
X143475000Y-125985000D02*
X143475000Y-112015000D01*
X157445000Y-112015000D02*
X157445000Y-125985000D01*
X157445000Y-125985000D02*
X143475000Y-125985000D01*
%TO.C,SW2*%
X143475000Y-93015000D02*
X157445000Y-93015000D01*
X143475000Y-106985000D02*
X143475000Y-93015000D01*
X157445000Y-93015000D02*
X157445000Y-106985000D01*
X157445000Y-106985000D02*
X143475000Y-106985000D01*
%TO.C,SW5*%
X162100000Y-97400000D02*
X164500000Y-97400000D01*
X162100000Y-101500000D02*
X162100000Y-97400000D01*
X162100000Y-105500000D02*
X162100000Y-109600000D01*
X162100000Y-109600000D02*
X173900000Y-109600000D01*
X163900000Y-110700000D02*
X164200000Y-111000000D01*
X163900000Y-111300000D02*
X163900000Y-110700000D01*
X164200000Y-111000000D02*
X163900000Y-111300000D01*
X166700000Y-97400000D02*
X169300000Y-97400000D01*
X167500000Y-103500000D02*
X168500000Y-103500000D01*
X168000000Y-104000000D02*
X168000000Y-103000000D01*
X171500000Y-97400000D02*
X173900000Y-97400000D01*
X173900000Y-97400000D02*
X173900000Y-101500000D01*
X173900000Y-105500000D02*
X173900000Y-109600000D01*
X171000000Y-103500000D02*
G75*
G02*
X165000000Y-103500000I-3000000J0D01*
G01*
X165000000Y-103500000D02*
G75*
G02*
X171000000Y-103500000I3000000J0D01*
G01*
%TO.C,U2*%
X162620000Y-57500000D02*
X162620000Y-58880000D01*
X164000000Y-58880000D02*
X162620000Y-58880000D01*
X161810000Y-56000000D02*
X173810000Y-56000000D01*
X173810000Y-94000000D01*
X161810000Y-94000000D01*
X161810000Y-56000000D01*
%TO.C,SW1*%
X143475000Y-74015000D02*
X157445000Y-74015000D01*
X143475000Y-87985000D02*
X143475000Y-74015000D01*
X157445000Y-74015000D02*
X157445000Y-87985000D01*
X157445000Y-87985000D02*
X143475000Y-87985000D01*
D18*
%TO.C,G\u002A\u002A\u002A*%
G36*
X161804545Y-132636898D02*
G01*
X161770588Y-132670856D01*
X161736630Y-132636898D01*
X161770588Y-132602941D01*
X161804545Y-132636898D01*
G37*
G36*
X161804545Y-133112299D02*
G01*
X161770588Y-133146257D01*
X161736630Y-133112299D01*
X161770588Y-133078342D01*
X161804545Y-133112299D01*
G37*
G36*
X162687432Y-132093583D02*
G01*
X162653475Y-132127540D01*
X162619518Y-132093583D01*
X162653475Y-132059626D01*
X162687432Y-132093583D01*
G37*
G36*
X162687432Y-134674332D02*
G01*
X162653475Y-134708289D01*
X162619518Y-134674332D01*
X162653475Y-134640374D01*
X162687432Y-134674332D01*
G37*
G36*
X163706149Y-130667380D02*
G01*
X163672192Y-130701337D01*
X163638235Y-130667380D01*
X163672192Y-130633422D01*
X163706149Y-130667380D01*
G37*
G36*
X164317379Y-119325668D02*
G01*
X164283422Y-119359626D01*
X164249465Y-119325668D01*
X164283422Y-119291711D01*
X164317379Y-119325668D01*
G37*
G36*
X164385293Y-119529412D02*
G01*
X164351336Y-119563369D01*
X164317379Y-119529412D01*
X164351336Y-119495455D01*
X164385293Y-119529412D01*
G37*
G36*
X164453208Y-119665241D02*
G01*
X164419251Y-119699198D01*
X164385293Y-119665241D01*
X164419251Y-119631283D01*
X164453208Y-119665241D01*
G37*
G36*
X164589037Y-119801070D02*
G01*
X164555080Y-119835027D01*
X164521122Y-119801070D01*
X164555080Y-119767112D01*
X164589037Y-119801070D01*
G37*
G36*
X165539839Y-135557219D02*
G01*
X165505882Y-135591176D01*
X165471924Y-135557219D01*
X165505882Y-135523262D01*
X165539839Y-135557219D01*
G37*
G36*
X165675668Y-120955615D02*
G01*
X165641711Y-120989572D01*
X165607753Y-120955615D01*
X165641711Y-120921658D01*
X165675668Y-120955615D01*
G37*
G36*
X165947326Y-119257754D02*
G01*
X165913368Y-119291711D01*
X165879411Y-119257754D01*
X165913368Y-119223797D01*
X165947326Y-119257754D01*
G37*
G36*
X169003475Y-135693048D02*
G01*
X168969518Y-135727005D01*
X168935561Y-135693048D01*
X168969518Y-135659091D01*
X169003475Y-135693048D01*
G37*
G36*
X170022192Y-135013904D02*
G01*
X169988235Y-135047861D01*
X169954277Y-135013904D01*
X169988235Y-134979947D01*
X170022192Y-135013904D01*
G37*
G36*
X170158021Y-130939037D02*
G01*
X170124063Y-130972995D01*
X170090106Y-130939037D01*
X170124063Y-130905080D01*
X170158021Y-130939037D01*
G37*
G36*
X170769251Y-123264706D02*
G01*
X170735293Y-123298663D01*
X170701336Y-123264706D01*
X170735293Y-123230749D01*
X170769251Y-123264706D01*
G37*
G36*
X171312566Y-118239037D02*
G01*
X171278609Y-118272995D01*
X171244652Y-118239037D01*
X171278609Y-118205080D01*
X171312566Y-118239037D01*
G37*
G36*
X171380481Y-118374866D02*
G01*
X171346523Y-118408824D01*
X171312566Y-118374866D01*
X171346523Y-118340909D01*
X171380481Y-118374866D01*
G37*
G36*
X163140195Y-131742692D02*
G01*
X163130873Y-131783067D01*
X163094919Y-131787968D01*
X163039018Y-131763119D01*
X163049643Y-131742692D01*
X163130241Y-131734564D01*
X163140195Y-131742692D01*
G37*
G36*
X163140195Y-135274242D02*
G01*
X163148323Y-135354841D01*
X163140195Y-135364795D01*
X163099820Y-135355472D01*
X163094919Y-135319519D01*
X163119768Y-135263617D01*
X163140195Y-135274242D01*
G37*
G36*
X164023083Y-135342157D02*
G01*
X164031211Y-135422755D01*
X164023083Y-135432709D01*
X163982708Y-135423387D01*
X163977807Y-135387433D01*
X164002656Y-135331532D01*
X164023083Y-135342157D01*
G37*
G36*
X164090998Y-135138414D02*
G01*
X164099126Y-135219012D01*
X164090998Y-135228966D01*
X164050622Y-135219644D01*
X164045721Y-135183690D01*
X164070570Y-135127789D01*
X164090998Y-135138414D01*
G37*
G36*
X165517201Y-134595098D02*
G01*
X165525329Y-134675697D01*
X165517201Y-134685651D01*
X165476826Y-134676328D01*
X165471924Y-134640374D01*
X165496773Y-134584473D01*
X165517201Y-134595098D01*
G37*
G36*
X170000671Y-133676838D02*
G01*
X170008767Y-133782980D01*
X169995309Y-133807008D01*
X169964441Y-133786753D01*
X169959639Y-133717870D01*
X169976225Y-133645403D01*
X170000671Y-133676838D01*
G37*
G36*
X170068585Y-132658122D02*
G01*
X170076681Y-132764264D01*
X170063223Y-132788291D01*
X170032356Y-132768036D01*
X170027553Y-132699153D01*
X170044140Y-132626686D01*
X170068585Y-132658122D01*
G37*
G36*
X170271211Y-135477986D02*
G01*
X170279339Y-135558584D01*
X170271211Y-135568538D01*
X170230836Y-135559216D01*
X170225935Y-135523262D01*
X170250784Y-135467361D01*
X170271211Y-135477986D01*
G37*
G36*
X170339126Y-135681729D02*
G01*
X170329803Y-135722104D01*
X170293850Y-135727005D01*
X170237948Y-135702157D01*
X170248573Y-135681729D01*
X170329172Y-135673601D01*
X170339126Y-135681729D01*
G37*
G36*
X161688136Y-132041129D02*
G01*
X161702673Y-132059626D01*
X161726577Y-132120708D01*
X161662323Y-132097703D01*
X161600801Y-132059626D01*
X161548590Y-132005105D01*
X161579815Y-131992751D01*
X161688136Y-132041129D01*
G37*
G36*
X165198293Y-124301146D02*
G01*
X165200267Y-124317380D01*
X165148586Y-124383321D01*
X165132352Y-124385294D01*
X165066411Y-124333613D01*
X165064438Y-124317380D01*
X165116119Y-124251439D01*
X165132352Y-124249465D01*
X165198293Y-124301146D01*
G37*
G36*
X165711353Y-122029602D02*
G01*
X165760561Y-122067540D01*
X165854620Y-122151319D01*
X165879411Y-122186391D01*
X165846375Y-122206719D01*
X165756092Y-122119476D01*
X165734919Y-122093182D01*
X165676184Y-122012738D01*
X165711353Y-122029602D01*
G37*
G36*
X170137555Y-133257496D02*
G01*
X170098836Y-133333021D01*
X170014757Y-133460726D01*
X169963834Y-133476082D01*
X169954277Y-133426230D01*
X170001049Y-133339432D01*
X170067268Y-133273423D01*
X170142558Y-133218336D01*
X170137555Y-133257496D01*
G37*
G36*
X170492360Y-124082784D02*
G01*
X170497593Y-124105620D01*
X170448032Y-124201629D01*
X170429678Y-124215508D01*
X170366996Y-124212403D01*
X170361764Y-124189567D01*
X170411325Y-124093558D01*
X170429678Y-124079679D01*
X170492360Y-124082784D01*
G37*
G36*
X166633896Y-122728184D02*
G01*
X166694793Y-122826651D01*
X166740954Y-122948779D01*
X166747157Y-123038473D01*
X166707526Y-123036774D01*
X166643628Y-122935434D01*
X166638338Y-122924060D01*
X166587524Y-122783480D01*
X166584435Y-122706830D01*
X166584467Y-122706797D01*
X166633896Y-122728184D01*
G37*
G36*
X161969498Y-134657353D02*
G01*
X162078360Y-134692492D01*
X162252356Y-134708228D01*
X162263580Y-134708289D01*
X162410758Y-134725220D01*
X162452975Y-134769527D01*
X162449732Y-134776203D01*
X162341168Y-134839481D01*
X162182420Y-134818231D01*
X162031354Y-134725267D01*
X161959768Y-134655526D01*
X161969498Y-134657353D01*
G37*
G36*
X169965944Y-134046225D02*
G01*
X169976037Y-134192051D01*
X169970371Y-134389680D01*
X169949094Y-134675435D01*
X169929296Y-134832532D01*
X169912300Y-134859253D01*
X169899433Y-134753882D01*
X169892021Y-134514701D01*
X169891725Y-134491575D01*
X169896633Y-134256724D01*
X169914671Y-134080919D01*
X169941344Y-134003180D01*
X169965944Y-134046225D01*
G37*
G36*
X170206633Y-131168382D02*
G01*
X170222487Y-131316424D01*
X170220851Y-131507000D01*
X170202693Y-131694163D01*
X170168979Y-131831962D01*
X170156594Y-131855882D01*
X170119724Y-131870974D01*
X170102588Y-131767857D01*
X170103849Y-131538327D01*
X170104021Y-131533289D01*
X170119445Y-131313332D01*
X170145127Y-131159928D01*
X170172322Y-131108824D01*
X170206633Y-131168382D01*
G37*
G36*
X163196791Y-134583774D02*
G01*
X163358526Y-134592475D01*
X163418696Y-134607363D01*
X163387827Y-134619830D01*
X163252306Y-134703643D01*
X163172467Y-134831303D01*
X163125277Y-134947963D01*
X163105668Y-134942332D01*
X163100281Y-134864471D01*
X163045819Y-134713591D01*
X162976069Y-134645814D01*
X162934581Y-134605357D01*
X162999179Y-134585923D01*
X163184074Y-134583517D01*
X163196791Y-134583774D01*
G37*
G36*
X166257844Y-121353388D02*
G01*
X166397826Y-121430157D01*
X166573177Y-121544389D01*
X166749033Y-121671792D01*
X166890533Y-121788071D01*
X166962814Y-121868935D01*
X166965987Y-121880426D01*
X166906092Y-121900497D01*
X166758440Y-121912829D01*
X166570935Y-121916464D01*
X166391481Y-121910445D01*
X166269919Y-121894344D01*
X166164708Y-121812425D01*
X166143248Y-121748630D01*
X166143781Y-121580553D01*
X166161475Y-121421951D01*
X166188095Y-121338376D01*
X166257844Y-121353388D01*
G37*
G36*
X170359012Y-123146245D02*
G01*
X170368130Y-123278137D01*
X170326493Y-123457472D01*
X170245886Y-123651128D01*
X170138092Y-123825980D01*
X170014896Y-123948905D01*
X169975610Y-123971202D01*
X169764759Y-124036002D01*
X169593707Y-124032536D01*
X169514395Y-123980334D01*
X169518016Y-123869679D01*
X169602967Y-123705281D01*
X169743366Y-123516791D01*
X169913328Y-123333858D01*
X170086968Y-123186133D01*
X170238403Y-123103266D01*
X170287355Y-123094920D01*
X170359012Y-123146245D01*
G37*
G36*
X167725615Y-123411463D02*
G01*
X168033621Y-123554227D01*
X168356495Y-123807037D01*
X168502430Y-123949376D01*
X168706242Y-124170989D01*
X168811635Y-124316035D01*
X168817359Y-124381029D01*
X168722167Y-124362486D01*
X168635311Y-124320251D01*
X168418016Y-124267677D01*
X168278863Y-124294551D01*
X168074949Y-124333989D01*
X167916844Y-124335024D01*
X167661883Y-124293583D01*
X167502197Y-124232621D01*
X167397397Y-124125921D01*
X167307096Y-123947263D01*
X167302288Y-123936091D01*
X167199508Y-123667840D01*
X167170632Y-123496619D01*
X167219279Y-123403226D01*
X167349071Y-123368458D01*
X167409667Y-123366578D01*
X167725615Y-123411463D01*
G37*
G36*
X170646315Y-124783146D02*
G01*
X170725164Y-124920121D01*
X170755394Y-125080870D01*
X170747757Y-125139294D01*
X170739152Y-125268807D01*
X170748600Y-125486407D01*
X170774041Y-125745852D01*
X170775217Y-125755292D01*
X170807028Y-126044472D01*
X170815677Y-126210012D01*
X170802879Y-126249260D01*
X170770345Y-126159563D01*
X170719789Y-125938269D01*
X170704936Y-125864115D01*
X170649961Y-125615426D01*
X170592320Y-125403517D01*
X170553024Y-125294560D01*
X170524995Y-125124086D01*
X170576040Y-125003851D01*
X170631879Y-124884991D01*
X170597314Y-124814149D01*
X170565507Y-124791748D01*
X170512249Y-124737868D01*
X170546139Y-124725906D01*
X170646315Y-124783146D01*
G37*
G36*
X163961338Y-135641557D02*
G01*
X164010724Y-135745584D01*
X164002512Y-135852936D01*
X163983132Y-135970974D01*
X164015372Y-135977683D01*
X164050536Y-135947727D01*
X164163791Y-135875552D01*
X164212112Y-135864994D01*
X164221492Y-135899406D01*
X164151591Y-135966866D01*
X164051458Y-136029201D01*
X163940813Y-136053228D01*
X163778020Y-136041253D01*
X163546268Y-136000394D01*
X163362669Y-135945013D01*
X163239369Y-135871923D01*
X163225851Y-135855397D01*
X163210596Y-135763019D01*
X163277636Y-135731567D01*
X163379726Y-135781124D01*
X163386102Y-135787279D01*
X163538262Y-135859318D01*
X163693801Y-135818356D01*
X163772710Y-135729534D01*
X163869594Y-135629546D01*
X163961338Y-135641557D01*
G37*
G36*
X168724746Y-135714664D02*
G01*
X168811247Y-135802554D01*
X169023803Y-136004534D01*
X169186250Y-136090046D01*
X169309817Y-136063812D01*
X169347023Y-136027830D01*
X169423942Y-135964865D01*
X169494531Y-136019420D01*
X169506587Y-136035563D01*
X169620562Y-136105137D01*
X169740856Y-136073380D01*
X169813809Y-135960826D01*
X169818449Y-135916216D01*
X169849078Y-135817965D01*
X169925875Y-135821611D01*
X170075736Y-135855763D01*
X170214511Y-135868959D01*
X170318965Y-135876611D01*
X170308987Y-135895944D01*
X170176414Y-135937644D01*
X170158021Y-135942907D01*
X169984734Y-136013166D01*
X169873145Y-136095973D01*
X169866010Y-136106568D01*
X169763988Y-136166456D01*
X169572113Y-136194417D01*
X169332431Y-136190957D01*
X169086989Y-136156577D01*
X168884625Y-136094800D01*
X168737489Y-136005829D01*
X168665378Y-135913902D01*
X168663903Y-135902151D01*
X168643885Y-135755388D01*
X168624482Y-135681624D01*
X168639277Y-135650872D01*
X168724746Y-135714664D01*
G37*
G36*
X171434855Y-118574997D02*
G01*
X171421454Y-118726317D01*
X171380308Y-118905666D01*
X171289901Y-119172018D01*
X171164541Y-119492339D01*
X171018534Y-119833597D01*
X170866187Y-120162757D01*
X170721808Y-120446788D01*
X170599703Y-120652655D01*
X170568614Y-120695433D01*
X170456691Y-120869143D01*
X170446797Y-121012097D01*
X170539565Y-121177652D01*
X170574874Y-121223755D01*
X170636212Y-121314180D01*
X170677450Y-121419058D01*
X170702458Y-121565983D01*
X170715107Y-121782546D01*
X170719268Y-122096342D01*
X170719423Y-122254230D01*
X170716354Y-122579494D01*
X170708449Y-122853013D01*
X170696878Y-123047494D01*
X170682809Y-123135643D01*
X170681602Y-123137293D01*
X170626352Y-123117228D01*
X170580259Y-123049801D01*
X170507258Y-122815101D01*
X170472336Y-122501486D01*
X170476815Y-122160802D01*
X170522018Y-121844895D01*
X170547142Y-121751565D01*
X170608646Y-121543906D01*
X170625072Y-121420158D01*
X170593159Y-121334997D01*
X170510640Y-121244093D01*
X170407535Y-121152511D01*
X170366736Y-121158853D01*
X170361764Y-121207556D01*
X170310255Y-121318696D01*
X170183709Y-121445787D01*
X170158021Y-121464973D01*
X170020331Y-121550185D01*
X169961017Y-121547357D01*
X169954277Y-121513032D01*
X169962966Y-121457020D01*
X169996865Y-121378265D01*
X170067728Y-121257652D01*
X170187308Y-121076065D01*
X170367355Y-120814390D01*
X170505762Y-120616043D01*
X170691793Y-120315701D01*
X170891664Y-119937122D01*
X171083406Y-119527416D01*
X171245050Y-119133692D01*
X171354627Y-118803059D01*
X171359046Y-118786331D01*
X171410288Y-118591987D01*
X171433574Y-118523450D01*
X171434855Y-118574997D01*
G37*
G36*
X166143310Y-122377887D02*
G01*
X166146764Y-122458395D01*
X166195924Y-122616483D01*
X166252940Y-122687433D01*
X166335559Y-122820308D01*
X166354812Y-122926296D01*
X166375555Y-123085867D01*
X166429152Y-123308266D01*
X166502657Y-123553296D01*
X166583123Y-123780760D01*
X166657603Y-123950462D01*
X166706925Y-124019515D01*
X166754595Y-124015110D01*
X166738509Y-123903534D01*
X166672777Y-123659208D01*
X166641645Y-123517835D01*
X166641293Y-123452087D01*
X166667901Y-123434638D01*
X166672936Y-123434492D01*
X166724223Y-123494038D01*
X166786923Y-123645837D01*
X166820160Y-123756159D01*
X166893322Y-123956576D01*
X167013019Y-124144204D01*
X167205423Y-124356109D01*
X167325570Y-124471963D01*
X167537739Y-124659196D01*
X167731268Y-124808737D01*
X167872396Y-124895101D01*
X167898810Y-124904717D01*
X168026088Y-124963924D01*
X168040489Y-125027826D01*
X167939465Y-125063537D01*
X167911185Y-125064438D01*
X167807734Y-125096841D01*
X167798270Y-125149332D01*
X167833494Y-125185064D01*
X167923275Y-125212911D01*
X168084404Y-125234545D01*
X168333672Y-125251638D01*
X168687870Y-125265859D01*
X169078912Y-125276814D01*
X169291704Y-125251950D01*
X169541631Y-125182138D01*
X169639206Y-125143533D01*
X169830761Y-125047345D01*
X169924866Y-124958089D01*
X169953561Y-124841687D01*
X169954277Y-124808438D01*
X169988919Y-124671188D01*
X170073623Y-124519479D01*
X170179561Y-124390376D01*
X170277901Y-124320943D01*
X170327592Y-124328484D01*
X170336029Y-124409405D01*
X170319330Y-124577406D01*
X170300498Y-124691275D01*
X170270538Y-124899958D01*
X170263882Y-125058299D01*
X170270785Y-125102291D01*
X170276751Y-125204579D01*
X170264570Y-125403306D01*
X170236867Y-125660677D01*
X170226591Y-125738793D01*
X170195649Y-126030114D01*
X170186230Y-126272929D01*
X170196415Y-126448260D01*
X170224289Y-126537131D01*
X170267932Y-126520565D01*
X170299125Y-126456684D01*
X170340380Y-126362453D01*
X170354252Y-126393695D01*
X170356991Y-126451337D01*
X170405089Y-126605393D01*
X170469757Y-126701149D01*
X170543726Y-126871484D01*
X170528823Y-126974637D01*
X170479895Y-127128793D01*
X170351217Y-126969883D01*
X170248826Y-126871121D01*
X170180289Y-126853282D01*
X170179377Y-126854134D01*
X170185398Y-126930262D01*
X170245414Y-127017959D01*
X170358170Y-127181858D01*
X170414345Y-127300095D01*
X170455266Y-127394989D01*
X170496633Y-127402587D01*
X170565971Y-127311729D01*
X170627203Y-127213805D01*
X170724697Y-127062493D01*
X170788880Y-126974827D01*
X170799312Y-126966043D01*
X170795484Y-127024247D01*
X170763193Y-127170247D01*
X170745785Y-127237701D01*
X170689102Y-127406230D01*
X170634384Y-127501458D01*
X170619391Y-127509358D01*
X170571955Y-127564774D01*
X170565507Y-127614488D01*
X170517650Y-127728705D01*
X170401654Y-127862019D01*
X170393569Y-127869167D01*
X170310989Y-127951594D01*
X170259457Y-128045827D01*
X170231118Y-128185116D01*
X170218113Y-128402713D01*
X170213788Y-128629947D01*
X170215699Y-128934017D01*
X170227615Y-129211858D01*
X170247206Y-129416741D01*
X170255294Y-129461898D01*
X170272882Y-129628281D01*
X170231331Y-129682620D01*
X170161142Y-129734859D01*
X170158021Y-129756004D01*
X170122732Y-129847318D01*
X170030755Y-130012422D01*
X169917530Y-130191702D01*
X169796363Y-130389850D01*
X169715578Y-130574422D01*
X169660913Y-130791000D01*
X169618103Y-131085167D01*
X169606536Y-131185509D01*
X169568952Y-131476333D01*
X169527547Y-131724525D01*
X169488968Y-131892697D01*
X169473497Y-131933849D01*
X169429910Y-132081808D01*
X169410986Y-132277863D01*
X169410962Y-132284411D01*
X169383218Y-132479556D01*
X169312061Y-132727621D01*
X169251903Y-132883127D01*
X169146783Y-133177709D01*
X169058768Y-133522465D01*
X168995721Y-133873411D01*
X168965506Y-134186562D01*
X168975986Y-134417936D01*
X168976775Y-134421982D01*
X168980306Y-134602245D01*
X168930861Y-134677236D01*
X168874238Y-134688828D01*
X168891617Y-134607952D01*
X168912822Y-134519715D01*
X168879141Y-134525490D01*
X168808298Y-134604495D01*
X168718018Y-134735948D01*
X168626022Y-134899067D01*
X168602876Y-134946509D01*
X168502209Y-135130615D01*
X168387298Y-135241403D01*
X168208271Y-135319697D01*
X168109294Y-135350538D01*
X167861491Y-135411747D01*
X167628337Y-135449503D01*
X167536384Y-135455348D01*
X167377618Y-135474386D01*
X167300663Y-135558307D01*
X167271152Y-135661392D01*
X167193671Y-135848228D01*
X167044680Y-135977179D01*
X166805151Y-136057468D01*
X166456056Y-136098323D01*
X166360251Y-136103032D01*
X166081899Y-136110101D01*
X165899740Y-136098950D01*
X165774549Y-136061892D01*
X165667098Y-135991243D01*
X165629570Y-135959869D01*
X165524774Y-135851695D01*
X165517952Y-135797849D01*
X165534491Y-135795003D01*
X165660439Y-135837590D01*
X165742064Y-135895417D01*
X165839550Y-135959312D01*
X165938049Y-135933518D01*
X165993809Y-135896991D01*
X166358649Y-135896991D01*
X166400088Y-135953387D01*
X166515328Y-135996985D01*
X166632914Y-135963605D01*
X166655627Y-135938515D01*
X166627598Y-135883429D01*
X166523807Y-135846061D01*
X166386060Y-135842440D01*
X166358649Y-135896991D01*
X165993809Y-135896991D01*
X166002091Y-135891566D01*
X166114461Y-135774330D01*
X166151069Y-135675614D01*
X166169651Y-135603762D01*
X166232566Y-135645508D01*
X166348694Y-135697421D01*
X166536348Y-135725422D01*
X166592513Y-135727005D01*
X166789531Y-135746493D01*
X166933564Y-135794930D01*
X166955287Y-135811331D01*
X167039798Y-135857561D01*
X167103659Y-135794352D01*
X167159572Y-135598214D01*
X167111585Y-135402107D01*
X166985327Y-135242125D01*
X166806430Y-135154358D01*
X166651742Y-135157981D01*
X166458555Y-135153750D01*
X166275820Y-135034720D01*
X166094407Y-134793074D01*
X165981283Y-134583717D01*
X165859223Y-134363970D01*
X165755454Y-134229632D01*
X165692646Y-134199414D01*
X165622981Y-134169847D01*
X165607753Y-134098935D01*
X165576079Y-133969813D01*
X165539839Y-133927273D01*
X165479070Y-133833168D01*
X165481737Y-133711960D01*
X165540541Y-133629320D01*
X165573796Y-133621658D01*
X165654674Y-133569530D01*
X165673401Y-133442809D01*
X165633153Y-133285987D01*
X165539839Y-133146257D01*
X165438205Y-133005100D01*
X165402970Y-132891578D01*
X165395853Y-132852520D01*
X165544870Y-132852520D01*
X165582186Y-132973845D01*
X165632522Y-133052060D01*
X165656326Y-133052408D01*
X165652565Y-132976453D01*
X165616044Y-132896671D01*
X165555993Y-132816885D01*
X165544870Y-132852520D01*
X165395853Y-132852520D01*
X165389324Y-132816687D01*
X165344038Y-132864074D01*
X165293414Y-132898014D01*
X165249898Y-132808919D01*
X165241128Y-132776057D01*
X165228108Y-132676343D01*
X168096171Y-132676343D01*
X168112944Y-132721870D01*
X168236903Y-132804739D01*
X168245221Y-132809805D01*
X168414282Y-132941108D01*
X168528729Y-133083127D01*
X168564711Y-133201772D01*
X168546761Y-133240761D01*
X168561645Y-133306358D01*
X168651022Y-133389370D01*
X168772149Y-133540805D01*
X168808981Y-133676445D01*
X168816995Y-133801582D01*
X168828113Y-133794450D01*
X168846879Y-133689572D01*
X168896673Y-133503541D01*
X168970397Y-133312231D01*
X169015152Y-133168775D01*
X169037048Y-132968114D01*
X169037670Y-132682580D01*
X169024002Y-132376008D01*
X169002880Y-132076028D01*
X168977765Y-131830078D01*
X168952134Y-131667435D01*
X168933811Y-131617101D01*
X168887652Y-131659410D01*
X168814921Y-131799579D01*
X168736788Y-131993030D01*
X168635749Y-132227859D01*
X168541884Y-132368679D01*
X168488337Y-132399198D01*
X168377685Y-132453968D01*
X168349883Y-132498484D01*
X168258488Y-132599575D01*
X168175367Y-132641067D01*
X168096171Y-132676343D01*
X165228108Y-132676343D01*
X165220832Y-132620614D01*
X165235673Y-132532681D01*
X165221338Y-132497494D01*
X165169837Y-132509114D01*
X165077846Y-132573835D01*
X165064438Y-132606864D01*
X165080929Y-132743541D01*
X165122312Y-132957361D01*
X165176454Y-133194782D01*
X165231223Y-133402262D01*
X165271319Y-133519786D01*
X165312807Y-133694450D01*
X165309730Y-133791444D01*
X165318073Y-133945166D01*
X165371292Y-134137892D01*
X165378547Y-134156289D01*
X165450478Y-134350158D01*
X165456734Y-134453784D01*
X165388792Y-134500140D01*
X165285310Y-134517013D01*
X165096571Y-134600567D01*
X164940169Y-134784203D01*
X164781644Y-135029904D01*
X164430661Y-134836369D01*
X164198132Y-134728340D01*
X163975628Y-134657541D01*
X163862965Y-134641605D01*
X163687523Y-134619394D01*
X163608580Y-134568782D01*
X163638995Y-134510059D01*
X163754307Y-134470136D01*
X163995791Y-134413132D01*
X164259894Y-134338608D01*
X164501825Y-134260500D01*
X164676789Y-134192745D01*
X164722380Y-134168937D01*
X164779412Y-134110559D01*
X164773037Y-134019399D01*
X164706500Y-133863372D01*
X164608593Y-133708847D01*
X164508964Y-133626062D01*
X164487079Y-133621658D01*
X164378865Y-133635492D01*
X164172431Y-133672706D01*
X163902074Y-133726869D01*
X163721943Y-133765152D01*
X163330082Y-133847263D01*
X163047365Y-133897117D01*
X162851223Y-133915640D01*
X162719090Y-133903763D01*
X162628396Y-133862414D01*
X162573795Y-133812400D01*
X162449011Y-133707823D01*
X162371972Y-133706596D01*
X162363257Y-133807423D01*
X162367538Y-133825401D01*
X162371347Y-133933696D01*
X162341502Y-133961230D01*
X162281693Y-133909361D01*
X162279946Y-133893315D01*
X162225334Y-133832170D01*
X162183470Y-133825401D01*
X162095020Y-133761137D01*
X162037728Y-133577062D01*
X162014640Y-133286255D01*
X162016716Y-133109300D01*
X162011026Y-132881677D01*
X161982834Y-132693322D01*
X161962893Y-132634610D01*
X161939227Y-132491630D01*
X161965159Y-132315914D01*
X162025792Y-132162461D01*
X162106227Y-132086268D01*
X162111688Y-132085312D01*
X162224542Y-132064536D01*
X162347860Y-132037420D01*
X162493776Y-132036712D01*
X162585442Y-132142162D01*
X162591639Y-132154983D01*
X162618568Y-132323110D01*
X162559783Y-132466140D01*
X162437622Y-132534248D01*
X162421258Y-132535027D01*
X162366464Y-132567669D01*
X162372858Y-132588444D01*
X162461054Y-132627300D01*
X162636750Y-132650639D01*
X162852812Y-132658096D01*
X163062104Y-132649308D01*
X163217490Y-132623909D01*
X163269382Y-132595374D01*
X163262551Y-132551304D01*
X163152211Y-132545719D01*
X163002718Y-132563984D01*
X162784856Y-132579150D01*
X162691662Y-132540699D01*
X162723234Y-132448745D01*
X162821930Y-132350623D01*
X162911798Y-132254062D01*
X162903193Y-132161530D01*
X162854321Y-132079630D01*
X162799712Y-131959689D01*
X162846736Y-131925357D01*
X162991679Y-131976502D01*
X163196791Y-132091811D01*
X163411505Y-132214293D01*
X163520681Y-132252441D01*
X163523959Y-132206332D01*
X163420982Y-132076041D01*
X163396262Y-132049148D01*
X163284853Y-131921316D01*
X163267091Y-131872210D01*
X163332620Y-131885878D01*
X163495095Y-131946466D01*
X163570320Y-131974278D01*
X163583518Y-131951631D01*
X163515475Y-131855093D01*
X163403730Y-131730063D01*
X163252207Y-131555706D01*
X163206261Y-131466285D01*
X163262505Y-131465640D01*
X163417552Y-131557610D01*
X163502406Y-131618182D01*
X163678195Y-131741621D01*
X163752927Y-131777400D01*
X163726603Y-131724629D01*
X163599221Y-131582418D01*
X163502406Y-131482353D01*
X163343924Y-131305567D01*
X163280915Y-131202190D01*
X163311558Y-131180469D01*
X163434031Y-131248653D01*
X163537102Y-131325282D01*
X163651421Y-131401278D01*
X163687728Y-131393116D01*
X163682133Y-131376218D01*
X163620437Y-131224944D01*
X163596400Y-131159759D01*
X163538688Y-131059771D01*
X163505804Y-131040909D01*
X163462557Y-130985644D01*
X163457129Y-130939037D01*
X163461942Y-130860003D01*
X163504378Y-130845803D01*
X163626440Y-130887671D01*
X163653622Y-130898020D01*
X163813681Y-130958874D01*
X163786171Y-130303769D01*
X163767801Y-130012607D01*
X163741092Y-129769450D01*
X163710380Y-129608610D01*
X163693083Y-129567326D01*
X163666338Y-129435556D01*
X163691361Y-129371885D01*
X163720111Y-129205877D01*
X163686625Y-128987553D01*
X163634978Y-128816970D01*
X163570894Y-128746814D01*
X163454263Y-128744533D01*
X163397721Y-128753076D01*
X163207402Y-128811775D01*
X162979721Y-128919086D01*
X162881485Y-128976705D01*
X162680422Y-129083857D01*
X162500534Y-129145901D01*
X162432753Y-129152704D01*
X162313957Y-129169859D01*
X162279946Y-129211609D01*
X162240359Y-129305114D01*
X162143990Y-129448279D01*
X162024424Y-129598462D01*
X161915249Y-129713019D01*
X161855481Y-129750533D01*
X161811376Y-129693956D01*
X161808394Y-129553979D01*
X161842319Y-129375241D01*
X161906870Y-129206342D01*
X162042020Y-129043414D01*
X162264939Y-128940787D01*
X162297378Y-128931739D01*
X162502035Y-128862426D01*
X162661437Y-128782982D01*
X162691889Y-128760264D01*
X162785184Y-128706946D01*
X164399450Y-128706946D01*
X164409645Y-129042164D01*
X164440511Y-129463626D01*
X164472512Y-129817971D01*
X164504980Y-130134055D01*
X164534548Y-130381810D01*
X164557848Y-130531166D01*
X164561992Y-130548529D01*
X164609345Y-130681867D01*
X164638553Y-130687057D01*
X164648415Y-130570719D01*
X164637732Y-130339473D01*
X164625686Y-130197393D01*
X164609731Y-129915223D01*
X164616991Y-129691226D01*
X164643777Y-129569184D01*
X164663320Y-129512487D01*
X168734080Y-129512487D01*
X168742105Y-129792890D01*
X168768326Y-130061175D01*
X168775189Y-130105737D01*
X168815850Y-130281667D01*
X168855453Y-130331783D01*
X168890521Y-130266076D01*
X168917579Y-130094541D01*
X168933151Y-129827169D01*
X168935561Y-129644655D01*
X168926806Y-129310717D01*
X168901534Y-129094832D01*
X168861233Y-129001885D01*
X168807389Y-129036764D01*
X168773041Y-129110902D01*
X168744356Y-129268860D01*
X168734080Y-129512487D01*
X164663320Y-129512487D01*
X164693113Y-129426055D01*
X164738258Y-129216733D01*
X164750084Y-129139305D01*
X164766611Y-128978145D01*
X164763047Y-128908026D01*
X164752312Y-128918583D01*
X164679922Y-129000886D01*
X164615953Y-128964619D01*
X164589037Y-128828839D01*
X164627379Y-128654229D01*
X164690908Y-128552330D01*
X164773445Y-128403886D01*
X164792780Y-128291881D01*
X164769430Y-128176982D01*
X164676896Y-128164245D01*
X164651201Y-128170328D01*
X164538415Y-128220478D01*
X164460851Y-128314419D01*
X164415524Y-128470470D01*
X164399450Y-128706946D01*
X162785184Y-128706946D01*
X162834111Y-128678984D01*
X163012611Y-128622638D01*
X163226345Y-128522581D01*
X163397977Y-128355605D01*
X163482848Y-128225915D01*
X163538761Y-128080621D01*
X163556137Y-127984759D01*
X164181550Y-127984759D01*
X164206399Y-128040661D01*
X164226826Y-128030036D01*
X164234954Y-127949437D01*
X164226826Y-127939483D01*
X164186451Y-127948806D01*
X164181550Y-127984759D01*
X163556137Y-127984759D01*
X163574585Y-127882987D01*
X163589546Y-127708680D01*
X170242586Y-127708680D01*
X170251876Y-127713102D01*
X170313854Y-127665291D01*
X170327807Y-127645187D01*
X170345113Y-127581695D01*
X170335823Y-127577273D01*
X170273845Y-127625083D01*
X170259892Y-127645187D01*
X170242586Y-127708680D01*
X163589546Y-127708680D01*
X163599194Y-127596277D01*
X163605124Y-127497811D01*
X163628272Y-127162983D01*
X163658056Y-126829129D01*
X163689090Y-126554575D01*
X163698120Y-126490642D01*
X163754939Y-126117112D01*
X163764501Y-126572339D01*
X163787181Y-126906815D01*
X163836205Y-127151238D01*
X163906677Y-127291858D01*
X163993702Y-127314925D01*
X164022423Y-127296768D01*
X164133721Y-127257998D01*
X164208903Y-127300134D01*
X164294971Y-127343185D01*
X164333359Y-127291631D01*
X164382836Y-127249604D01*
X164497966Y-127281175D01*
X164608215Y-127336362D01*
X164768867Y-127416615D01*
X164864843Y-127431120D01*
X164949634Y-127381102D01*
X164990400Y-127345114D01*
X165136487Y-127260895D01*
X165328307Y-127259954D01*
X165367337Y-127266667D01*
X165533692Y-127275932D01*
X165611611Y-127237439D01*
X165581394Y-127166575D01*
X165537043Y-127134101D01*
X165451112Y-127029658D01*
X165345983Y-126828232D01*
X165235363Y-126564622D01*
X165132960Y-126273627D01*
X165052482Y-125990046D01*
X165016046Y-125811497D01*
X164983454Y-125453115D01*
X164988580Y-125090238D01*
X165000555Y-124973227D01*
X165039968Y-124733450D01*
X165078693Y-124579974D01*
X165110850Y-124526495D01*
X165130560Y-124586712D01*
X165133899Y-124662611D01*
X165139771Y-124762191D01*
X165166389Y-124754527D01*
X165211713Y-124669276D01*
X165879411Y-124669276D01*
X165918215Y-124696652D01*
X165982924Y-124655590D01*
X166054119Y-124572544D01*
X166055357Y-124538602D01*
X165979952Y-124537148D01*
X165901547Y-124605680D01*
X165879411Y-124669276D01*
X165211713Y-124669276D01*
X165231517Y-124632026D01*
X165238500Y-124617895D01*
X165365879Y-124451785D01*
X165484759Y-124414152D01*
X165612794Y-124367577D01*
X165695956Y-124215508D01*
X165763481Y-124058899D01*
X165830367Y-123968431D01*
X165830381Y-123968422D01*
X165863094Y-123882668D01*
X165850147Y-123849572D01*
X165847528Y-123808021D01*
X166218983Y-123808021D01*
X166252940Y-123841979D01*
X166286898Y-123808021D01*
X166252940Y-123774064D01*
X166218983Y-123808021D01*
X165847528Y-123808021D01*
X165845858Y-123781534D01*
X165870007Y-123774064D01*
X165934432Y-123711069D01*
X165986388Y-123541431D01*
X166020100Y-123294172D01*
X166029793Y-122998312D01*
X166029355Y-122973272D01*
X166036182Y-122736789D01*
X166062135Y-122535774D01*
X166082073Y-122463914D01*
X166127828Y-122358706D01*
X166143310Y-122377887D01*
G37*
%TO.C,SW4*%
D15*
X143475000Y-131060000D02*
X157445000Y-131060000D01*
X143475000Y-145030000D02*
X143475000Y-131060000D01*
X157445000Y-131060000D02*
X157445000Y-145030000D01*
X157445000Y-145030000D02*
X143475000Y-145030000D01*
%TD*%
M02*
