%TF.GenerationSoftware,KiCad,Pcbnew,10.0.0*%
%TF.CreationDate,2026-04-02T11:33:45+11:00*%
%TF.ProjectId,hackpadbludprint,6861636b-7061-4646-926c-75647072696e,V1*%
%TF.SameCoordinates,Original*%
%TF.FileFunction,Profile,NP*%
%FSLAX46Y46*%
G04 Gerber Fmt 4.6, Leading zero omitted, Abs format (unit mm)*
G04 Created by KiCad (PCBNEW 10.0.0) date 2026-04-02 11:33:45*
%MOMM*%
%LPD*%
G01*
G04 APERTURE LIST*
%TA.AperFunction,Profile*%
%ADD10C,0.050000*%
%TD*%
%TA.AperFunction,Profile*%
%ADD11C,0.120000*%
%TD*%
G04 APERTURE END LIST*
D10*
X176897138Y-113306042D02*
X176830040Y-129964445D01*
X160289501Y-147747754D01*
X138454986Y-147802685D01*
X138246536Y-50041054D01*
X176742818Y-49958970D01*
X176897138Y-113306042D01*
%TO.C,D3*%
D11*
X148800000Y-123500000D02*
X148800000Y-122799647D01*
X148800000Y-123500000D02*
X148800000Y-124200353D01*
X150500000Y-122000000D02*
X149599647Y-122000000D01*
X150500000Y-122000000D02*
X151400353Y-122000000D01*
X150500000Y-125000000D02*
X149599647Y-125000000D01*
X150500000Y-125000000D02*
X151400353Y-125000000D01*
X152200000Y-123500000D02*
X152200000Y-122799647D01*
X152200000Y-123500000D02*
X152200000Y-124200353D01*
X148756066Y-122643345D02*
G75*
G02*
X148799976Y-122799647I-256066J-156255D01*
G01*
X148756066Y-122643345D02*
G75*
G02*
X149443345Y-121956066I426774J260505D01*
G01*
X148800000Y-124200353D02*
G75*
G02*
X148756065Y-124356654I-299680J-87D01*
G01*
X149443345Y-125043934D02*
G75*
G02*
X148756066Y-124356655I-260505J426774D01*
G01*
X149443345Y-125043934D02*
G75*
G02*
X149599647Y-125000024I156255J-256066D01*
G01*
X149599647Y-122000000D02*
G75*
G02*
X149443344Y-121956067I3J300020D01*
G01*
X151400353Y-125000000D02*
G75*
G02*
X151556655Y-125043934I3J-299992D01*
G01*
X151556655Y-121956066D02*
G75*
G02*
X151400353Y-122000000I-156299J256058D01*
G01*
X151556655Y-121956066D02*
G75*
G02*
X152243934Y-122643345I260503J-426776D01*
G01*
X152200000Y-122799647D02*
G75*
G02*
X152243934Y-122643345I299992J3D01*
G01*
X152243934Y-124356655D02*
G75*
G02*
X151556655Y-125043934I-426776J-260503D01*
G01*
X152243934Y-124356655D02*
G75*
G02*
X152200000Y-124200353I256058J156299D01*
G01*
%TO.C,D2*%
X148800000Y-104435000D02*
X148800000Y-103734647D01*
X148800000Y-104435000D02*
X148800000Y-105135353D01*
X150500000Y-102935000D02*
X149599647Y-102935000D01*
X150500000Y-102935000D02*
X151400353Y-102935000D01*
X150500000Y-105935000D02*
X149599647Y-105935000D01*
X150500000Y-105935000D02*
X151400353Y-105935000D01*
X152200000Y-104435000D02*
X152200000Y-103734647D01*
X152200000Y-104435000D02*
X152200000Y-105135353D01*
X148756066Y-103578345D02*
G75*
G02*
X148799976Y-103734647I-256066J-156255D01*
G01*
X148756066Y-103578345D02*
G75*
G02*
X149443345Y-102891066I426774J260505D01*
G01*
X148800000Y-105135353D02*
G75*
G02*
X148756065Y-105291654I-299680J-87D01*
G01*
X149443345Y-105978934D02*
G75*
G02*
X148756066Y-105291655I-260505J426774D01*
G01*
X149443345Y-105978934D02*
G75*
G02*
X149599647Y-105935024I156255J-256066D01*
G01*
X149599647Y-102935000D02*
G75*
G02*
X149443344Y-102891067I3J300020D01*
G01*
X151400353Y-105935000D02*
G75*
G02*
X151556655Y-105978934I3J-299992D01*
G01*
X151556655Y-102891066D02*
G75*
G02*
X151400353Y-102935000I-156299J256058D01*
G01*
X151556655Y-102891066D02*
G75*
G02*
X152243934Y-103578345I260503J-426776D01*
G01*
X152200000Y-103734647D02*
G75*
G02*
X152243934Y-103578345I299992J3D01*
G01*
X152243934Y-105291655D02*
G75*
G02*
X151556655Y-105978934I-426776J-260503D01*
G01*
X152243934Y-105291655D02*
G75*
G02*
X152200000Y-105135353I256058J156299D01*
G01*
%TO.C,D4*%
X148800000Y-142500000D02*
X148800000Y-141799647D01*
X148800000Y-142500000D02*
X148800000Y-143200353D01*
X150500000Y-141000000D02*
X149599647Y-141000000D01*
X150500000Y-141000000D02*
X151400353Y-141000000D01*
X150500000Y-144000000D02*
X149599647Y-144000000D01*
X150500000Y-144000000D02*
X151400353Y-144000000D01*
X152200000Y-142500000D02*
X152200000Y-141799647D01*
X152200000Y-142500000D02*
X152200000Y-143200353D01*
X148756066Y-141643345D02*
G75*
G02*
X148799976Y-141799647I-256066J-156255D01*
G01*
X148756066Y-141643345D02*
G75*
G02*
X149443345Y-140956066I426774J260505D01*
G01*
X148800000Y-143200353D02*
G75*
G02*
X148756065Y-143356654I-299680J-87D01*
G01*
X149443345Y-144043934D02*
G75*
G02*
X148756066Y-143356655I-260505J426774D01*
G01*
X149443345Y-144043934D02*
G75*
G02*
X149599647Y-144000024I156255J-256066D01*
G01*
X149599647Y-141000000D02*
G75*
G02*
X149443344Y-140956067I3J300020D01*
G01*
X151400353Y-144000000D02*
G75*
G02*
X151556655Y-144043934I3J-299992D01*
G01*
X151556655Y-140956066D02*
G75*
G02*
X151400353Y-141000000I-156299J256058D01*
G01*
X151556655Y-140956066D02*
G75*
G02*
X152243934Y-141643345I260503J-426776D01*
G01*
X152200000Y-141799647D02*
G75*
G02*
X152243934Y-141643345I299992J3D01*
G01*
X152243934Y-143356655D02*
G75*
G02*
X151556655Y-144043934I-426776J-260503D01*
G01*
X152243934Y-143356655D02*
G75*
G02*
X152200000Y-143200353I256058J156299D01*
G01*
%TO.C,D1*%
X148800000Y-85500000D02*
X148800000Y-84799647D01*
X148800000Y-85500000D02*
X148800000Y-86200353D01*
X150500000Y-84000000D02*
X149599647Y-84000000D01*
X150500000Y-84000000D02*
X151400353Y-84000000D01*
X150500000Y-87000000D02*
X149599647Y-87000000D01*
X150500000Y-87000000D02*
X151400353Y-87000000D01*
X152200000Y-85500000D02*
X152200000Y-84799647D01*
X152200000Y-85500000D02*
X152200000Y-86200353D01*
X148756066Y-84643345D02*
G75*
G02*
X148799976Y-84799647I-256066J-156255D01*
G01*
X148756066Y-84643345D02*
G75*
G02*
X149443345Y-83956066I426774J260505D01*
G01*
X148800000Y-86200353D02*
G75*
G02*
X148756065Y-86356654I-299680J-87D01*
G01*
X149443345Y-87043934D02*
G75*
G02*
X148756066Y-86356655I-260505J426774D01*
G01*
X149443345Y-87043934D02*
G75*
G02*
X149599647Y-87000024I156255J-256066D01*
G01*
X149599647Y-84000000D02*
G75*
G02*
X149443344Y-83956067I3J300020D01*
G01*
X151400353Y-87000000D02*
G75*
G02*
X151556655Y-87043934I3J-299992D01*
G01*
X151556655Y-83956066D02*
G75*
G02*
X151400353Y-84000000I-156299J256058D01*
G01*
X151556655Y-83956066D02*
G75*
G02*
X152243934Y-84643345I260503J-426776D01*
G01*
X152200000Y-84799647D02*
G75*
G02*
X152243934Y-84643345I299992J3D01*
G01*
X152243934Y-86356655D02*
G75*
G02*
X151556655Y-87043934I-426776J-260503D01*
G01*
X152243934Y-86356655D02*
G75*
G02*
X152200000Y-86200353I256058J156299D01*
G01*
%TD*%
M02*
