%TF.GenerationSoftware,KiCad,Pcbnew,10.0.0*%
%TF.CreationDate,2026-04-02T11:33:45+11:00*%
%TF.ProjectId,hackpadbludprint,6861636b-7061-4646-926c-75647072696e,V1*%
%TF.SameCoordinates,Original*%
%TF.FileFunction,Soldermask,Top*%
%TF.FilePolarity,Negative*%
%FSLAX46Y46*%
G04 Gerber Fmt 4.6, Leading zero omitted, Abs format (unit mm)*
G04 Created by KiCad (PCBNEW 10.0.0) date 2026-04-02 11:33:45*
%MOMM*%
%LPD*%
G01*
G04 APERTURE LIST*
G04 Aperture macros list*
%AMRoundRect*
0 Rectangle with rounded corners*
0 $1 Rounding radius*
0 $2 $3 $4 $5 $6 $7 $8 $9 X,Y pos of 4 corners*
0 Add a 4 corners polygon primitive as box body*
4,1,4,$2,$3,$4,$5,$6,$7,$8,$9,$2,$3,0*
0 Add four circle primitives for the rounded corners*
1,1,$1+$1,$2,$3*
1,1,$1+$1,$4,$5*
1,1,$1+$1,$6,$7*
1,1,$1+$1,$8,$9*
0 Add four rect primitives between the rounded corners*
20,1,$1+$1,$2,$3,$4,$5,0*
20,1,$1+$1,$4,$5,$6,$7,0*
20,1,$1+$1,$6,$7,$8,$9,0*
20,1,$1+$1,$8,$9,$2,$3,0*%
G04 Aperture macros list end*
%ADD10R,3.500000X1.700000*%
%ADD11O,3.600000X1.700000*%
%ADD12O,3.700000X1.700000*%
%ADD13C,1.700000*%
%ADD14C,4.000000*%
%ADD15C,2.200000*%
%ADD16R,2.000000X2.000000*%
%ADD17C,2.000000*%
%ADD18R,2.000000X3.200000*%
%ADD19RoundRect,0.170000X-0.680000X-0.680000X0.680000X-0.680000X0.680000X0.680000X-0.680000X0.680000X0*%
G04 APERTURE END LIST*
D10*
%TO.C,U1*%
X141750000Y-53000000D03*
D11*
X141750000Y-55540000D03*
X141750000Y-58080000D03*
X141750000Y-60620000D03*
X141750000Y-63160000D03*
X141750000Y-65700000D03*
X141750000Y-68240000D03*
X159000000Y-68240000D03*
X159000000Y-65700000D03*
X159000000Y-63160000D03*
D12*
X159000000Y-60620000D03*
X159000000Y-58080000D03*
X159000000Y-55540000D03*
X159000000Y-53000000D03*
%TD*%
D13*
%TO.C,SW3*%
X145380000Y-119000000D03*
D14*
X150460000Y-119000000D03*
D13*
X155540000Y-119000000D03*
D15*
X153000000Y-113920000D03*
X146650000Y-116460000D03*
%TD*%
D13*
%TO.C,SW2*%
X145380000Y-100000000D03*
D14*
X150460000Y-100000000D03*
D13*
X155540000Y-100000000D03*
D15*
X153000000Y-94920000D03*
X146650000Y-97460000D03*
%TD*%
D16*
%TO.C,SW5*%
X165500000Y-111000000D03*
D17*
X170500000Y-111000000D03*
X168000000Y-111000000D03*
D18*
X162400000Y-103500000D03*
X173600000Y-103500000D03*
D17*
X170500000Y-96500000D03*
X165500000Y-96500000D03*
%TD*%
D19*
%TO.C,U2*%
X164000000Y-57500000D03*
D13*
X166540000Y-57500000D03*
X169080000Y-57500000D03*
X171620000Y-57500000D03*
%TD*%
%TO.C,SW1*%
X145380000Y-81000000D03*
D14*
X150460000Y-81000000D03*
D13*
X155540000Y-81000000D03*
D15*
X153000000Y-75920000D03*
X146650000Y-78460000D03*
%TD*%
D13*
%TO.C,SW4*%
X145380000Y-138045000D03*
D14*
X150460000Y-138045000D03*
D13*
X155540000Y-138045000D03*
D15*
X153000000Y-132965000D03*
X146650000Y-135505000D03*
%TD*%
M02*
